<svg xmlns="http://www.w3.org/2000/svg" viewBox="0 0 40 16"><style type="text/css">		.wdt-amex{fill:#2478BC;}	</style><path class="wdt-amex" d="M39.8,3.1h-6.2l-1.5,1.5l-1.3-1.5H17.5l-1.1,2.5l-1.2-2.5H9.8v1.2L9.2,3.1H4.7l-4.5,9.9h5.3l0.7-1.6h1.5 l0.7,1.6h5.9v-1.2l0.5,1.2h3l0.5-1.2v1.2h12.2l1.5-1.5l1.4,1.5l6.3,0L35.3,8L39.8,3.1z M21.4,11.5h-1.7l0-5.6l-2.5,5.6h-1.5L13,6 v5.6H9.5L8.8,10H5.2l-0.7,1.6H2.6l3.1-7.1h2.6l3,6.7V4.5h2.9l2.3,4.8l2.1-4.8h2.8V11.5z M36.5,11.5h-2.2l-2.1-2.3l-2.2,2.3H23l0-7.1 h7l2.1,2.3l2.2-2.3h2.2L33.2,8L36.5,11.5z"></path><polygon class="wdt-amex" points="5.8,8.5 8.2,8.5 7,5.7 "></polygon><polygon class="wdt-amex" points="24.7,5.9 24.7,7.2 28.5,7.2 28.5,8.7 24.7,8.7 24.7,10.1 29,10.1 31,8 29.1,5.9 "></polygon></svg>