<svg xmlns="http://www.w3.org/2000/svg" viewBox="0 0 40 16"><path d="M12.4,8.4c-0.4-0.6-0.7-1.3-0.6-2c0.1-0.7,0.4-1.4,1-1.9c0.1-0.1,0.3-0.2,0.4-0.4c0,0,0,0,0,0C13.1,4,13,4,13,3.9 c-0.4-0.5-1-0.9-1.7-1c-0.5-0.1-1-0.1-1.5,0.1c-0.3,0.1-0.7,0.2-1,0.3c-0.2,0.1-0.5,0.1-0.7,0c-0.2,0-0.3-0.1-0.5-0.1 C7.1,3.1,6.7,3,6.3,2.9c-0.4-0.1-0.8,0-1.2,0.1c-0.4,0.1-0.7,0.4-1,0.7c-0.6,0.6-0.9,1.4-1,2.2C2.9,6.8,3,7.8,3.3,8.7 c0.3,1,0.7,2,1.4,2.8c0.2,0.4,0.5,0.7,0.9,0.9c0.2,0.1,0.3,0.2,0.5,0.3c0.2,0,0.4,0,0.6,0c0.3-0.1,0.5-0.2,0.8-0.3 c0.3-0.1,0.7-0.2,1.1-0.2c0.3,0,0.6,0.1,0.9,0.2c0.3,0.1,0.5,0.2,0.8,0.3c0.3,0.1,0.5,0.1,0.8,0c0.3-0.1,0.5-0.2,0.7-0.4 c0.1-0.1,0.3-0.2,0.4-0.3c0.6-0.7,1.1-1.4,1.4-2.2c0.1-0.1,0.1-0.3,0.2-0.4c-0.1,0-0.1,0-0.2-0.1C13,9,12.6,8.7,12.4,8.4z"></path><path d="M9,2.9c0.3-0.1,0.6-0.3,0.8-0.6c0.5-0.5,0.8-1.2,0.9-1.9c0-0.1,0-0.3,0-0.4C9.9,0.1,9.2,0.5,8.8,1c-0.5,0.6-0.7,1.3-0.7,2 c0,0,0,0,0,0C8.4,3.1,8.7,3,9,2.9"></path><path d="M23.1,3.7c-0.2-0.4-0.4-0.7-0.7-1l0,0c-0.9-0.7-1.9-1-3-0.9c-0.9,0-1.8,0.1-2.6,0.2v10.5h1.4V8.2c0.4,0.1,0.7,0.1,1.1,0.1 c0.6,0,1.2-0.1,1.8-0.3c0.6-0.2,1.1-0.5,1.5-0.9c0.3-0.3,0.5-0.7,0.6-1.1c0.1-0.4,0.2-0.8,0.2-1.2C23.3,4.5,23.3,4,23.1,3.7z  M19.3,7.2L19.3,7.2c-0.4,0-0.8,0-1.1-0.1V3c0.4-0.1,0.9-0.1,1.3-0.1c1.5,0,2.5,0.7,2.5,2.1C21.9,6.4,20.9,7.2,19.3,7.2z"></path><path d="M35.5,4.8L34,9.3c-0.2,0.6-0.3,1.1-0.5,1.6h0c-0.1-0.5-0.3-1.1-0.5-1.6l-1.7-4.5h-1.5l2.8,7.1c0.1,0.1,0.1,0.2,0.1,0.4 c0,0.1-0.1,0.2-0.1,0.3c-0.3,0.6-0.7,1.1-1.2,1.6c-0.4,0.3-0.8,0.5-1.2,0.7l0.3,1.2c0.6-0.1,1.2-0.5,1.7-0.9c1-0.8,1.6-2.2,2.6-4.8 L37,4.9L35.5,4.8z"></path><path d="M29.5,10.7l0-2.9c0-1.5-0.6-3.1-2.9-3.1c-0.9,0-1.8,0.2-2.5,0.7l0.3,0.9c0.6-0.4,1.3-0.6,2-0.6c0.2,0,0.5,0,0.7,0.1 c0.2,0.1,0.4,0.2,0.6,0.4s0.3,0.4,0.4,0.6c0.1,0.2,0.1,0.5,0.1,0.7v0.2c-3,0-4.6,1-4.6,2.8c0,0.3,0.1,0.6,0.2,0.9 c0.1,0.3,0.3,0.5,0.5,0.7c0.2,0.2,0.5,0.4,0.8,0.5c0.3,0.1,0.6,0.1,0.9,0.1c0.5,0,0.9-0.1,1.3-0.3c0.4-0.2,0.8-0.5,1-0.9h0l0.1,1 h1.3C29.5,11.9,29.4,11.3,29.5,10.7z M28.1,9.9c0,0.2,0,0.3-0.1,0.4c-0.1,0.4-0.4,0.7-0.7,0.9c-0.3,0.2-0.7,0.3-1.1,0.3 c-0.2,0-0.4,0-0.5-0.1c-0.2-0.1-0.3-0.2-0.4-0.3c-0.1-0.1-0.2-0.3-0.3-0.4c-0.1-0.2-0.1-0.3-0.1-0.5c0-1.5,1.7-1.8,3.3-1.7V9.9z"></path></svg>