<svg xmlns="http://www.w3.org/2000/svg" viewBox="0 0 225 40"><path d="M32.4,38.6c-5.7-0.7-6.5-6.2-6.8-10.8c-0.4-5.7-0.8-15.2,0.9-21.3c1.2-4.4,5.3-5.1,9.5-5.4c8.6-0.5,17.3-0.7,25.9-0.5 c4.8,0.1,8.7,0.4,11.8,0.8c3.6,0.5,5.8,3,6.3,6.5c1,6.3,1.1,12.7,0.7,19c-0.1,1.8-0.3,3.6-0.6,5.4c-0.8,4.8-4.3,6.1-8.6,6.5 c-9.4,0.7-19.1,0.8-29.1,0.5C38.7,39.2,35.4,39,32.4,38.6L32.4,38.6z M61.7,20.2c0.1-0.1,0.1-0.2,0.1-0.2c0,0,0,0-0.1-0.1l-14-8.1 c-0.1-0.1-0.2,0-0.2,0.1c0,0,0,0.1,0,0.1l0,16.1c0,0.1,0.1,0.2,0.2,0.2c0,0,0.1,0,0.1,0L61.7,20.2L61.7,20.2z"></path><path d="M172.6,14.5c0,0.2,0.1,0.3,0.2,0.1c1.1-1.8,2.6-2.7,4.5-2.8c3.6-0.1,4.8,2.7,5.1,5.8c0.4,3.9,0.4,7.9,0.2,11.8 c-0.1,1.6-0.5,3.2-1.1,4.8c-1.6,3.9-6.7,3.7-8.8,0.6c-0.2-0.3-0.3-0.2-0.4,0.1l-0.4,1.7c0,0.1-0.1,0.2-0.3,0.2h-4.2 c-0.1,0-0.2-0.1-0.2-0.2V2.3c0-0.1,0.1-0.2,0.2-0.2l4.9,0c0.2,0,0.3,0.1,0.3,0.2L172.6,14.5L172.6,14.5z M174.3,15.9 c-1.3,0.5-1.7,1.6-1.7,3v12.8c0,0.1,0,0.2,0.1,0.3c1.2,1.6,3.5,1.4,4-0.8c0.3-1.5,0.5-3.1,0.5-4.9c0-2.4-0.1-4.9-0.2-7.3 C176.8,17.6,176.3,15.1,174.3,15.9L174.3,15.9z"></path><path d="M95.3,19.5c0.1,0.4,0.1,0.4,0.2,0c0.2-1.2,0.4-2.5,0.7-3.9c0.9-4.1,1.8-8.1,2.7-12.2c0-0.1,0.1-0.2,0.2-0.2l5,0 c0.2,0,0.3,0.1,0.2,0.3l-6.1,21.8c-0.1,0.3-0.1,0.6-0.1,1l0,10.1c0,0.1-0.1,0.3-0.3,0.3l-5,0c-0.1,0-0.2-0.1-0.2-0.2 c0-3.1,0-6.1,0-9.2c0-1-0.2-2-0.4-3c-1.9-6.9-3.8-13.8-5.8-20.7c0-0.1,0-0.2,0.2-0.3c0,0,0,0,0.1,0l5,0c0.1,0,0.2,0.1,0.2,0.2 L95.3,19.5L95.3,19.5z"></path><path d="M145.3,7.9l0,28.6c0,0.1-0.1,0.1-0.1,0.1l-5.2,0c-0.1,0-0.1-0.1-0.1-0.1l0-28.7c0-0.1-0.1-0.1-0.1-0.1l-5.2,0 c-0.1,0-0.1-0.1-0.1-0.1l0-4.2c0-0.1,0.1-0.1,0.1-0.1h16c0.1,0,0.1,0.1,0.1,0.1l0,4.2c0,0.1-0.1,0.1-0.1,0.1l-5.2,0 C145.4,7.8,145.3,7.8,145.3,7.9L145.3,7.9z"></path><path d="M190.4,26.6c-0.1,1.5,0,3,0.2,4.6c0.1,1.1,0.4,2.1,1.7,2.1c2.3,0.1,2.3-2.3,2.4-3.9c0-0.1,0.1-0.2,0.2-0.2h0l4.4,0.2 c0.1,0,0.2,0.1,0.2,0.2c0.6,5.6-3.6,8.3-8.7,7.4c-6.7-1.2-5.7-9.6-5.7-14.8c0-4.5,0.8-9.9,6.4-10.3c3.5-0.3,6.7,0.5,7.6,4.4 c0.8,3.2,0.6,6.6,0.6,9.9c0,0.1-0.1,0.2-0.2,0.2l-8.7,0C190.5,26.4,190.5,26.4,190.4,26.6z M190.6,23.1l3.7,0c0.1,0,0.1,0,0.1-0.1 l0-4.3c0-1.7-0.7-3.1-1.6-3.1h-0.6c-0.9,0-1.6,1.4-1.6,3.1v0l0,4.3C190.5,23,190.5,23.1,190.6,23.1L190.6,23.1z"></path><path d="M131.1,34.1c0-0.1-0.1-0.2-0.2-0.2c-0.1,0-0.1,0-0.1,0.1c-1.1,2.3-3,3.3-5.7,3.1c-3.2-0.2-4.1-3.2-4.1-6 c0-6.2,0-12.4,0-18.7c0-0.1,0.1-0.2,0.2-0.2h5.1c0.1,0,0.2,0.1,0.2,0.2c0,5.7,0,11.4,0,17.2c0,0.8,0.1,1.5,0.2,2.3 c0.3,2,2.6,1.4,3.4,0.3c0.2-0.3,0.3-0.9,0.3-1.7c0-6,0-12,0-18.1c0-0.1,0-0.1,0.1-0.1l5.3,0c0.1,0,0.2,0.1,0.2,0.2l0,24.2 c0,0.1,0,0.1-0.1,0.1l-4.1,0c-0.1,0-0.2-0.1-0.2-0.2L131.1,34.1L131.1,34.1z"></path><path d="M158.8,34.2c-1.3,2.5-3.5,3.4-6.6,2.8c-2.7-0.6-3.2-4.2-3.2-6.6c0-6,0-11.9,0-17.9c0,0,0-0.1,0.1-0.1h5.3 c0.1,0,0.2,0.1,0.2,0.2c0,6,0,12.1,0,18.1c0,0.8,0.1,1.9,0.7,2.4c1.1,0.9,3.2-0.5,3.2-1.9c0-6.2,0-12.5-0.1-18.7 c0-0.1,0.1-0.2,0.2-0.2h5.2c0.1,0,0.2,0.1,0.2,0.2v24c0,0.2-0.1,0.3-0.3,0.3c0,0,0,0,0,0l-3.9,0c-0.1,0-0.2-0.1-0.2-0.2l-0.4-2.3 C159.2,33.8,159,33.8,158.8,34.2L158.8,34.2z"></path><path d="M109,11.9c-3.4,0.4-5.3,3.1-5.7,6.2c-0.5,4.1-0.5,8.4,0,12.9c0.6,4.8,3.7,6.3,8.2,6c6.1-0.4,6.6-5.8,6.7-10.7 C118.2,19.6,118.9,10.8,109,11.9z M112.6,31.8c0,1.2-0.9,2.1-2.1,2.1c-1.2,0-2.1-0.9-2.1-2.1V17.1c0-1.2,0.9-2.1,2.1-2.1 c1.2,0,2.1,0.9,2.1,2.1V31.8z"></path></svg>