<svg xmlns="http://www.w3.org/2000/svg" viewBox="0 0 225 40"><path d="M75.7,11.2h5.1c0.1,0,0.1,0.1,0.1,0.1l0,6.3c0,0.1-0.1,0.2-0.2,0.2l-5.1,0c-0.1,0-0.1,0.1-0.1,0.1v20.8c0,0,0,0.1-0.1,0.1 l-7,0c0,0-0.1,0-0.1-0.1V18.1c0-0.1-0.1-0.2-0.2-0.2h-3.7c-0.1,0-0.1-0.1-0.1-0.1l0-6.4c0-0.1,0-0.1,0.1-0.1h3.7 c0.1,0,0.2-0.1,0.2-0.2c0,0,0,0,0,0c0-2-0.2-4.1,0.7-6.1c2-4.9,7.5-4.7,11.8-4.2c0.1,0,0.1,0,0.1,0.1l-1.2,6.3 c0,0.1-0.1,0.2-0.3,0.2c-1.4-0.1-3.3-0.4-3.6,1.6C75.6,9.4,75.6,10.2,75.7,11.2C75.6,11.2,75.6,11.2,75.7,11.2L75.7,11.2z"></path><path d="M118.2,12.5c0.8-0.4,1.7-0.9,2.5-1.2c7.9-2.7,16.1,2.1,18.1,10c0.2,0.6,0.3,1.5,0.4,2.5c0.1,1.1,0.1,2.4,0.4,3.4 c1.6,5.3,8,7.4,11.8,3c2.5-2.8,2.7-7.2,0.4-10.2c-2.7-3.7-7.8-3.7-10.7-0.3c0,0-0.1,0-0.1,0c0,0,0,0,0,0c-0.7-2.2-1.8-4.2-3.3-6 c0-0.1,0-0.1,0-0.1c8.3-6.4,19.8-2.3,22.6,7.6c0.9,3.2,0.6,6.9-0.8,9.9c-2.9,6.2-9.8,9.6-16.5,7.9c-5.9-1.5-9.9-6.3-10.8-12.2 c-0.2-1.1,0-2.6-0.3-3.7c-0.2-1.1-0.7-2.1-1.3-3c-3.1-4.4-9.2-3.7-11.6,1.1c-2.1,4.1-0.5,9.8,4.1,11.5c2.7,1,5.6-0.1,7.3-2.3 c0,0,0.1,0,0.1,0c0,0,0,0,0,0c0.7,2.2,1.9,4.2,3.4,6c0,0,0,0.1,0,0.1c-4.5,3.6-10.6,4-15.7,1.5c0,0-0.1,0-0.1,0c0,0,0,0,0,0l0,0.9 c0,0.1,0,0.1-0.1,0.1l-7,0c0,0-0.1,0-0.1-0.1l0-36.2c0-0.1,0.1-0.2,0.2-0.3l6.9-1.3c0.1,0,0.1,0,0.1,0.1l0,11.4 C118,12.5,118.1,12.6,118.2,12.5C118.1,12.6,118.1,12.5,118.2,12.5L118.2,12.5z"></path><path d="M100.9,37.9c0-0.1,0-0.1-0.1-0.1c0,0,0,0-0.1,0c-1.8,1.3-4,1.7-6.1,1.6c-1.2-0.1-2.3-0.3-3.5-0.6c-3.4-0.9-5.7-3.1-6.7-6.5 c-0.6-1.9-0.9-3.9-0.9-5.7c0-5.1,0-10.2,0-15.3c0-0.1,0-0.1,0.1-0.1h7c0,0,0.1,0,0.1,0.1c0,4.9,0,9.8,0,14.7c0,2.8,0.5,5.9,3.6,6.6 c0.8,0.2,1.6,0.2,2.5,0.1c3.7-0.5,4.1-3.7,4.1-6.8c0-4.9,0-9.7,0-14.6c0-0.1,0-0.1,0.1-0.1h7c0.1,0,0.1,0,0.1,0.1l0,27.5 c0,0,0,0.1-0.1,0.1l-7,0c0,0-0.1,0-0.1-0.1c0,0,0,0,0,0L100.9,37.9L100.9,37.9z"></path></svg>