<svg xmlns="http://www.w3.org/2000/svg" viewBox="0 0 225 40"><path d="M172.4,12.7h-9.5v15.7c0,0.7-0.3,1.3-0.7,1.8c-0.4,0.4-1.1,0.7-1.8,0.7h-5.5c-0.8-0.1-1.4-0.3-1.8-0.7 c-0.4-0.5-0.7-1.1-0.7-1.8V12.7h-9.5v16.5c0.1,2.2,0.4,4.1,1.4,5.6c0.9,1.5,2.2,2.7,3.8,3.5c1.7,0.8,3.5,1.2,5.7,1.2h9.3v-0.1 c2,0,3.7-0.4,5.2-1.3c1.4-0.9,2.5-2.1,3.2-3.6c0.8-1.5,1.2-3.3,1.2-5.3L172.4,12.7L172.4,12.7z M77,13.6c-1.7-0.7-3.5-1-5.5-1h-6.2 l-2.4,0.3c-0.6,0.2-0.8,0.3-0.8,0.3V0.5h-9.5v39h9.5V23.7c0.1-0.7,0.3-1.3,0.8-1.8c0.5-0.4,1.1-0.7,1.8-0.7h5.5 c0.7,0,1.3,0.3,1.8,0.7c0.5,0.4,0.7,1.1,0.8,1.8v15.8h9.5v-17c0-2.4-0.5-4.3-1.4-5.8C79.9,15.3,78.6,14.3,77,13.6z M109.2,28.4 c-0.1,0.7-0.3,1.3-0.7,1.8c-0.5,0.4-1.1,0.7-1.8,0.7h-5.5c-0.7-0.1-1.3-0.3-1.8-0.7c-0.5-0.5-0.7-1.1-0.8-1.8V12.7h-9.5v16.5 c0,2.2,0.4,4.1,1.3,5.6c0.9,1.5,2.2,2.7,3.8,3.5c1.7,0.8,3.5,1.2,5.7,1.2h9.3v-0.1c2,0,3.7-0.4,5.1-1.3c1.4-0.9,2.5-2.1,3.3-3.6 c0.7-1.5,1.1-3.3,1.2-5.3V12.7h-9.5L109.2,28.4L109.2,28.4z M126,39.5h9.5v-39H126V39.5z"></path></svg>