<svg xmlns="http://www.w3.org/2000/svg" viewBox="0 0 225 40"><path d="M69.6,26.5c0,8.1,5,12.9,12.4,12.9c3.7,0,6.8-1,8.5-3.7v3.7h6.8V0.9h-7v16.4c-1.6-2.7-4.5-3.9-8.2-3.9 C74.8,13.4,69.6,18.3,69.6,26.5L69.6,26.5z M90.5,26.5c0,4.6-3.1,7.5-6.9,7.5c-3.8,0-6.9-2.9-6.9-7.5s3-7.7,6.9-7.7 C87.4,18.9,90.5,21.9,90.5,26.5z M119.1,29.5c-0.8,3-2.8,4.5-6.1,4.5c-3.7,0-6.8-2.3-6.9-6.3h17.7c0.2-1,0.3-2,0.3-3.2 c0-7.2-4.9-11.2-12.1-11.2c-7.7,0-13,5.5-13,12.9c0,8.3,5.8,13.2,13.9,13.2c6.1,0,10.2-2.5,12.1-7.6L119.1,29.5z M106.2,23 c0.7-2.9,3.1-4.6,6-4.6c3.1,0,5.3,1.7,5.3,4.4l0,0.2H106.2z M145.2,29.5c-0.8,3-2.8,4.5-6.1,4.5c-3.7,0-6.8-2.3-6.9-6.3H150 c0.2-1,0.3-2,0.3-3.2c0-7.2-4.9-11.2-12.1-11.2c-7.7,0-13,5.5-13,12.9c0,8.3,5.8,13.2,13.9,13.2c6.1,0,10.2-2.5,12.1-7.6L145.2,29.5 z M132.3,23c0.7-2.9,3.1-4.6,6-4.6c3.1,0,5.3,1.7,5.3,4.4l0,0.2H132.3z M175.1,39.5v-6.4h-14.8l14.4-14v-5.8H152v6.1h13.9l-14.3,14 v6.1L175.1,39.5L175.1,39.5z M195.6,29.5c-0.8,3-2.8,4.5-6.1,4.5c-3.7,0-6.8-2.3-6.9-6.3h17.7c0.2-1,0.3-2,0.3-3.2 c0-7.2-4.9-11.2-12.1-11.2c-7.7,0-13,5.5-13,12.9c0,8.3,5.8,13.2,13.9,13.2c6.1,0,10.2-2.5,12.1-7.6L195.6,29.5z M182.7,23 c0.7-2.9,3.1-4.6,6-4.6c3.1,0,5.3,1.7,5.3,4.4l0,0.2H182.7z"></path><path d="M47.2,0.9H60v7.5H47.2V0.9z"></path><path d="M47.2,11.3H60v7.5H47.2V11.3z"></path><path d="M47.2,21.6H60v7.5H47.2V21.6z"></path><path d="M0.8,32h12.8v7.5H0.8V32z"></path><path d="M16.3,32H29v7.5H16.3V32z"></path><path d="M31.7,32h12.8v7.5H31.7V32z"></path><path d="M47.2,32H60v7.5H47.2V32z"></path><path d="M31.7,21.6h12.8v7.5H31.7V21.6z"></path><path d="M16.3,21.6H29v7.5H16.3V21.6z"></path><path d="M16.3,11.3H29v7.5H16.3V11.3z"></path><path d="M217.3,22.4v0.7h6.8v-2c0-4.5-2.8-7.7-7.5-7.7c-3,0-5.2,1.5-6.3,3.9v-3.9h-7.1v26.1h7.1V22.7c0-2.7,1.4-4.1,3.6-4.1 C216,18.6,217.3,20.5,217.3,22.4L217.3,22.4z"></path></svg>