<svg xmlns="http://www.w3.org/2000/svg" viewBox="0 0 226 40"><path d="M75.4,11.9c0.1,0.1,0.3,0.2,0.6,0.2h8.5c0.5,0,0.8,0.4,0.8,0.8v5.2c0,0.4-0.3,0.8-0.8,0.8h-8.4c-0.7,0-1,0.3-1,1 c0,2.5-0.4,6.2,0.4,8.4c1.4,3.7,5.6,5.2,9.2,3.7c0.3-0.1,0.7,0,0.9,0.3l2.6,4.6c0.2,0.4,0.1,0.9-0.3,1.1c0,0,0,0,0,0 c-7.5,3.7-16.5-0.2-18.9-8.2c-0.4-1.4-0.7-3.7-0.7-7c0-7,0-13.9,0-20.9c0-0.1,0.1-0.2,0.2-0.2h5.6c0.6,0,1,0.3,1,1 c0,2.8,0,5.7,0.1,8.6C75.3,11.7,75.3,11.8,75.4,11.9L75.4,11.9z"></path><path d="M144.2,33.2c-6,9.9-21,7.6-24.3-3.1c-0.4-1.4-0.7-3.6-0.7-6.6c0-7.1,0-14.2,0-21.4c0-0.1,0.1-0.2,0.2-0.2h5.8 c0.4,0,0.8,0.3,0.8,0.8l0,10c0,0.4,0.4,0.8,0.8,0.8c0.1,0,0.2,0,0.3-0.1c5-2.3,11-1.3,15,2.5C146.8,20.4,147.7,27.5,144.2,33.2z  M139.6,25.8c0-3.8-3-6.8-6.8-6.8c-3.8,0-6.8,3-6.8,6.8c0,3.8,3,6.8,6.8,6.8C136.5,32.6,139.6,29.6,139.6,25.8z"></path><path d="M155.5,7.7c1.3-1.3,1.3-3.5,0-4.8c-1.3-1.3-3.5-1.3-4.8,0c-1.3,1.3-1.3,3.5,0,4.8C152,9.1,154.2,9.1,155.5,7.7z"></path><path d="M96.1,28.6c2.2,5.5,10.5,5.3,12.5-0.3c0.3-0.8,0.4-2.1,0.4-3.9c0-4,0-8,0-12c0-0.2,0.1-0.2,0.2-0.2h5.8 c0.4,0,0.7,0.3,0.7,0.7c0,3.9,0,7.7,0,11.6c0,2.4-0.2,4.3-0.6,5.6c-3.9,12.5-21.7,12.7-25.8,0c-0.4-1.3-0.6-3.1-0.6-5.3 c0-4.1,0-8.2,0-12.3c0-0.2,0.1-0.2,0.3-0.2h5.6c0.5,0,0.9,0.4,0.9,0.9c0,3.7,0,7.3,0,11C95.5,26.2,95.7,27.7,96.1,28.6L96.1,28.6z"></path><path d="M155.8,12.2c0.4,0,0.7,0.3,0.7,0.7v25.9c0,0.4-0.3,0.8-0.8,0.8h-5.2c-0.4,0-0.8-0.4-0.8-0.8V12.4c0-0.2,0.1-0.2,0.2-0.2 L155.8,12.2L155.8,12.2z"></path></svg>