<svg xmlns="http://www.w3.org/2000/svg" viewBox="0 0 225 40"><path d="M45.9,18.3l0,19.9c0,0.4-0.2,0.6-0.6,0.7L40,39.5c-0.1,0-0.3-0.1-0.3-0.2c0,0,0,0,0,0l0-38.4c0-0.2,0.1-0.2,0.2-0.2l5.3,0 c0.2,0,0.4,0.1,0.5,0.3l7.4,20.5c0.2,0.7,0.4,0.7,0.4-0.1l0-20.4c0-0.2,0.1-0.3,0.3-0.3h0l5.6,0c0.2,0,0.3,0.1,0.3,0.3l0,36 c0,0.1-0.1,0.2-0.2,0.2l-6.2,0.7c-0.2,0-0.4-0.1-0.5-0.3l-6.7-19.2C46.1,18.2,46,18.2,45.9,18.3C46,18.2,45.9,18.2,45.9,18.3 L45.9,18.3z"></path><path d="M72.1,29.9l10.3-0.7c0.2,0,0.3,0.1,0.3,0.3c0,0,0,0,0,0L82.6,35c0,0.2-0.1,0.3-0.3,0.3l-16.5,1.2c-0.2,0-0.3-0.1-0.3-0.3 c0,0,0,0,0,0l0-35.3c0-0.2,0.1-0.3,0.3-0.3l16.5-0.1c0.2,0,0.3,0.1,0.3,0.3l0,5.7c0,0.2-0.1,0.3-0.3,0.3l-10.3,0 c-0.2,0-0.3,0.1-0.3,0.3l0,7.5c0,0.2,0.1,0.3,0.3,0.3l7.7,0c0.2,0,0.3,0.1,0.3,0.3c0,0,0,0,0,0l0,5.5c0,0.2-0.1,0.3-0.3,0.3l-7.6,0 c-0.2,0-0.3,0.1-0.3,0.3l0,8.4C71.8,29.8,71.9,29.9,72.1,29.9C72.1,29.9,72.1,29.9,72.1,29.9L72.1,29.9z"></path><path d="M86.5,6.4l0-5.5c0-0.2,0.2-0.4,0.4-0.4h0l18.4,0c0.2,0,0.4,0.2,0.4,0.4l0,5.5c0,0.2-0.2,0.4-0.4,0.4l-5.7-0.1 c-0.2,0-0.4,0.2-0.4,0.4l0,27.2c0,0.2-0.2,0.4-0.3,0.4l-5.5,0.2c-0.2,0-0.4-0.1-0.4-0.3c0,0,0,0,0,0l0-27.4c0-0.2-0.2-0.4-0.4-0.4 l-5.6,0C86.7,6.8,86.5,6.6,86.5,6.4L86.5,6.4L86.5,6.4z"></path><path d="M123.9,14.8l0,5.4c0,0.2-0.1,0.3-0.3,0.3l-7.7,0c-0.2,0-0.3,0.1-0.3,0.3l0,13.3c0,0.2-0.1,0.3-0.3,0.3l-5.6,0 c-0.2,0-0.3-0.1-0.3-0.3l0-33.3c0-0.2,0.1-0.3,0.3-0.3l16.5,0c0.2,0,0.3,0.1,0.3,0.3l0,5.6c0,0.2-0.1,0.3-0.3,0.3l-10.3,0 c-0.2,0-0.3,0.1-0.3,0.3l0,7.1c0,0.2,0.1,0.3,0.3,0.3l7.7,0.1C123.8,14.5,123.9,14.7,123.9,14.8L123.9,14.8z"></path><path d="M147.1,29.8l0,5.3c0,0.2-0.2,0.4-0.4,0.4c0,0,0,0,0,0l-15.9-0.8c-0.2,0-0.4-0.2-0.4-0.4l0-33.3c0-0.2,0.2-0.4,0.4-0.4l5.4,0 c0.2,0,0.4,0.2,0.4,0.4l0,27.5c0,0.2,0.2,0.4,0.4,0.4l9.7,0.5C147,29.4,147.1,29.6,147.1,29.8L147.1,29.8z"></path><path d="M152.1,35.7l0-34.7c0-0.2,0.2-0.3,0.3-0.3l5.5,0c0.2,0,0.4,0.2,0.4,0.3v35.2c0,0.2-0.2,0.3-0.3,0.4c0,0,0,0,0,0l-5.6-0.4 C152.2,36,152.1,35.8,152.1,35.7L152.1,35.7z"></path><path d="M169.2,37.6l-6.2-0.7c-0.1,0-0.2-0.1-0.2-0.2c0,0,0,0,0,0l7.7-17.7c0,0,0-0.1,0-0.1l-7-18c0-0.1,0-0.2,0.1-0.2 c0,0,0,0,0.1,0l6.3-0.1c0.1,0,0.1,0,0.2,0.1l3.8,9.7c0,0.1,0.1,0.1,0.2,0.1c0,0,0.1-0.1,0.1-0.1l4.2-9.6c0-0.1,0.1-0.1,0.2-0.1 l6.5,0c0.1,0,0.2,0.1,0.2,0.2c0,0,0,0,0,0.1l-7.9,18.1c0,0,0,0.1,0,0.1l7.9,20.2c0,0.1,0,0.2-0.1,0.2c0,0-0.1,0-0.1,0l-6.7-0.9 c-0.1,0-0.1-0.1-0.1-0.1l-4.3-10.9c0-0.1-0.1-0.1-0.2-0.1c0,0-0.1,0-0.1,0.1l-4.3,9.9C169.3,37.5,169.3,37.6,169.2,37.6L169.2,37.6z "></path></svg>