<svg xmlns="http://www.w3.org/2000/svg" viewBox="0 0 225 40"><path d="M27.7,39.3H17.3V24.5h-6.7v14.8H0V1.2h10.6v14.2h6.7V1.2h10.4L27.7,39.3z M75.2,39.5c10.6,0,19.3-8.8,19.3-19.6 c0-10.8-8.7-19.4-19.3-19.4s-16.2,7.8-17.5,11c0-4.7-4.7-10.4-10.2-10.4H29.8v38.2h16.5c6.7,0,11.4-5.7,11.4-10.8 C59.2,31.7,64.5,39.5,75.2,39.5L75.2,39.5z M45,24c1.5,0,2.8,1.5,2.8,3.2c0,1.7-1.2,3.3-2.8,3.3h-5.3V24L45,24L45,24z M45,9.7 c1.5,0,2.8,1.5,2.8,3.2S46.5,16,45,16h-5.3V9.7L45,9.7L45,9.7z M52,19.9c1.2-0.1,3.2-1.5,4-2.3c-0.3,1-0.3,4.2,0,5.3 C55.1,21.6,53.2,20.1,52,19.9L52,19.9z M65.6,19.9c0-5.4,4.4-9.7,9.7-9.7c5.4,0,9.7,4.4,9.6,9.8c-0.1,5.3-4.4,9.6-9.7,9.6 C69.9,29.6,65.6,25.3,65.6,19.9L65.6,19.9z M75.2,27.5c4.1,0,7.6-3.4,7.6-7.6s-3.5-7.6-7.6-7.6c-4.1,0-7.6,3.4-7.6,7.6 S71,27.5,75.2,27.5z"></path><path d="M150,14.7c-0.2-9.3-6.8-14.1-14.8-14.1c-4.4,0-8.4,1.5-11.1,4.3c-2.7-2.9-6.7-4.3-11.1-4.3c-8,0-14.6,4.9-14.8,14.2v21.2 c0,1.9,1.6,3.5,3.5,3.5h3.3c0.3,0,0.6-0.3,0.6-0.6v-24c0.1-4.6,3.4-7,7.4-7c4,0,7.2,2.4,7.4,7v21.1c0,1.9,1.6,3.5,3.5,3.5h3.3 c0.3,0,0.6-0.3,0.6-0.6v-24c0.1-4.6,3.4-7,7.4-7c4,0,7.2,2.4,7.4,7v21.1c0,1.9,1.6,3.5,3.5,3.5h3.3c0.3,0,0.6-0.3,0.6-0.6L150,14.7 C150,14.7,150,14.7,150,14.7L150,14.7z M224.6,1.1H219c-1.6,0-3,0.8-3.9,2.1l-6.2,9.2c-0.8,1.2-2.6,1.2-3.4,0l-6.2-9.2 c-0.8-1.3-2.3-2.1-3.9-2.1h-5.6c-0.4,0-0.5,0.4-0.4,0.7l11.1,16.5c0.8,1.2,0.8,2.7,0,3.9l-11.1,16.5c-0.2,0.3,0,0.7,0.4,0.7h5.6 c1.6,0,3-0.8,3.9-2.1l6.2-9.2c0.8-1.2,2.6-1.2,3.4,0l6.2,9.2c0.8,1.3,2.3,2.1,3.9,2.1h5.6c0.4,0,0.5-0.4,0.4-0.7l-11.1-16.4 c-0.8-1.2-0.8-2.7,0-3.9l11.1-16.5C225.1,1.5,224.9,1.1,224.6,1.1L224.6,1.1z M186.8,1.1h-3.3c-1.7,0-3.1,1.2-3.4,2.8 c-3-2.3-6.6-3.4-10.6-3.4c-9.7,0-17.6,6.8-17.6,19.5c0,12.7,7.9,19.5,17.6,19.5c4,0,7.6-1.1,10.6-3.3c0.2,1.8,1.7,3.2,3.5,3.2h3.3 c0.3,0,0.6-0.3,0.6-0.6v-37C187.4,1.4,187.1,1.1,186.8,1.1z M169.4,32.3c-5.8,0-10.5-4.2-10.5-12.2s4.7-12.2,10.5-12.2 c5.8,0,10.5,4.2,10.5,12.2S175.2,32.3,169.4,32.3z"></path></svg>