<svg xmlns="http://www.w3.org/2000/svg" viewBox="0 0 60 60"><path d="M57.62,20.94c1.91-5.13-5-10-15.94-3.27,6.81-8.86,3.73-15.21-1-15C37.58-1.78,29.55.9,28.83,14,25.79,2.11,18.12.58,15.47,4.7c-5.16.38-7.33,8,2.73,16.09C5.73,15.47-.7,21.32,1.7,26.1c-2.53,4.24,2.05,10,14.12,7.35C3.64,40.3,4.33,49.06,10,49.75c1.47,4.72,8.69,4.86,14.6-5.69C22.31,57.25,29.07,61.9,33.17,58c4.54,2.39,9.69-3.11,5.78-14.66,8,9.29,15.14,7.28,15.16,1.95,5.07-1.72,4.37-9.73-7.23-14.3C58.14,30.76,61,24.43,57.62,20.93ZM33.74,33.61a4.59,4.59,0,0,1-3.13,1.3,4.51,4.51,0,0,1-4.43-4.45,4.56,4.56,0,0,1,1.29-3.14A4.61,4.61,0,0,1,30.61,26a4.45,4.45,0,0,1,3.13,7.59Z"></path></svg>