<svg xmlns="http://www.w3.org/2000/svg" viewBox="0 0 60 60"><path d="M58.12,40.49A30.07,30.07,0,0,0,60,30a1.76,1.76,0,0,0-1.76-1.76h-24l17-17a1.74,1.74,0,0,0,0-2.48,30,30,0,0,0-42.42,0,30,30,0,0,0,0,42.42,30,30,0,0,0,26.9,8.25A10.53,10.53,0,0,0,39,60h7.21A13.65,13.65,0,0,0,59.88,46.37V42.24A1.75,1.75,0,0,0,58.12,40.49Zm-17.76,16H39a7.15,7.15,0,0,1-7.15-7.14V48h1.34a7.15,7.15,0,0,1,7.14,7.15Zm16-10.11A10.12,10.12,0,0,1,46.24,56.48H43.88V54.12A10.13,10.13,0,0,1,54,44h2.36Zm-14-5.78a1.77,1.77,0,1,1,1.77,1.77A1.77,1.77,0,0,1,42.35,40.59Zm12-.1H54a13.47,13.47,0,0,0-4.64.81,5.52,5.52,0,0,0,0-.71A5.29,5.29,0,1,0,43.2,45.8a14.35,14.35,0,0,0-1.64,2.72,10.63,10.63,0,0,0-8.35-4H30a5.29,5.29,0,1,0-3.57,1.39,5.24,5.24,0,0,0,2.09-.43,1.66,1.66,0,0,0-.2.79v3.1a10.63,10.63,0,0,0,2.74,7.12c-.37,0-.73,0-1.1,0a26.48,26.48,0,1,1,0-53,26.28,26.28,0,0,1,17.44,6.55L28.76,28.76a1.72,1.72,0,0,0-.38,1.91A1.75,1.75,0,0,0,30,31.76H56.43A26.27,26.27,0,0,1,54.33,40.49Zm-26.09.1a1.77,1.77,0,1,1-1.77-1.77A1.77,1.77,0,0,1,28.24,40.59Z"></path><path d="M33.53,17.64a5.29,5.29,0,1,0-5.29-5.29A5.3,5.3,0,0,0,33.53,17.64Zm0-7.06a1.77,1.77,0,1,1-1.77,1.77A1.77,1.77,0,0,1,33.53,10.58Z"></path><path d="M15.88,14.12a5.29,5.29,0,1,0,5.29,5.29A5.29,5.29,0,0,0,15.88,14.12Zm0,7.06a1.77,1.77,0,1,1,1.77-1.77A1.77,1.77,0,0,1,15.88,21.18Z"></path><path d="M12.35,28.24a5.29,5.29,0,1,0,5.29,5.29A5.29,5.29,0,0,0,12.35,28.24Zm0,7.06a1.77,1.77,0,1,1,1.77-1.77A1.77,1.77,0,0,1,12.35,35.3Z"></path><path d="M15.51,42.42a1.76,1.76,0,1,0,1.76,1.76A1.8,1.8,0,0,0,15.51,42.42Z"></path><path d="M23,24.77a1.76,1.76,0,1,0,1.76,1.75A1.79,1.79,0,0,0,23,24.77Z"></path><path d="M23.67,9.49a1.79,1.79,0,0,0-1.76-1.76,1.77,1.77,0,0,0-1.75,1.76,1.76,1.76,0,1,0,3.51,0Z"></path><path d="M29.45,19.1a1.76,1.76,0,1,0-1.75,1.76A1.79,1.79,0,0,0,29.45,19.1Z"></path><path d="M35.66,38.83a1.76,1.76,0,1,0-1.75-1.76A1.78,1.78,0,0,0,35.66,38.83Z"></path><path d="M23.09,52.5a1.77,1.77,0,0,0,1.75-1.76,1.76,1.76,0,1,0-1.75,1.76Z"></path></svg>