<svg xmlns="http://www.w3.org/2000/svg" viewBox="0 0 218 98.39"><path d="M68.81,18.24C68.38,9.77,65-.7,54.73,0c-4.63.33-8.58,3-12.14,5.81a83.45,83.45,0,0,0-10.47,9.5c-6.62,7.32-11.9,15.8-16.68,24.41-5,9.07-10,18.58-13.15,28.53C.72,73.29-1.1,79.62.84,84.77c2.4,6.43,9.85,6.07,15.33,4.53-.46,2.53-.46,5.41,1.26,7.49,1.43,1.75,3.9,1.79,5.95,1.41,5.38-1,9.79-5.2,13.61-8.89a88.41,88.41,0,0,0,11.15-13.4c1.65-2.4,3.2-4.86,4.68-7.37.69-1.17,2.36-2,3.47-2.73l4.21-3c-2.39,3.27-4.86,7.46-5.41,11.54-.46,3.48,1.33,7.82,5.35,7.84,3.72,0,7.42-2.71,10.28-4.85a58.58,58.58,0,0,0,10-9.72c-.26,3.9,2,7.32,6.24,6.59,3.93-.69,7.33-3.63,9.87-6.54-.75,3.08-.44,6.93,3.33,7.37,3.43.4,6.49-1.89,8.8-4.18-.44,2.09-.75,4.77.57,6.61,1.68,2.33,5.23,1.58,7.5.76,6-2.16,9.9-7.61,14.88-11.29-.95,2.19-2.16,4.26-3.07,6.47-.74,1.82-1.1,5.27,1.8,3.84A21.83,21.83,0,0,0,136.26,73c1.86-1.86,3.37-4.13,5.7-5.43-.3,1-3.25,5.89-.85,6.48,1.49.36,3.42-1,4.51-1.86a48.78,48.78,0,0,0,4.22-4c-.52,1.46-.67,3.77,1.34,4.16,1.7.34,3.34-1.47,4.35-2.58.6,3.83,5,1.74,6.87.27a33.59,33.59,0,0,1,9.81-5.54,66.09,66.09,0,0,0-2.72,6.3c-.47,1.53-1.06,3.8.13,5.18,1.73,2,5.49.7,7.47-.15,4.71-2,8.93-5.17,13.44-7.63,4.22-2.29,9.33-5,14.3-4.13a20.31,20.31,0,0,0,6.81.58c.92-.13,6.37-1.12,6.36-2.14s-1.89,0-2.32.07A20.27,20.27,0,0,1,212,63a39,39,0,0,1-7.61-.89c-4.65-.71-9.64,1.56-13.66,3.68-4.26,2.25-8.27,5-12.48,7.29-1.1.6-7.31,3.93-7.53,1-.27-3.53,2.59-7.15,3.72-10.34.93-2.57-2-1.34-3.25-.88a43.49,43.49,0,0,0-5.53,2.49,32.89,32.89,0,0,0-4.8,3.33c-.52.41-2.56,2.23-3.22,1.14-.48-.77,0-2.07.34-2.8.26-.57.41-1.21-.27-1.56s-1.4.48-1.85,1c-.17.19-4.14,4.76-4.45,3.69-.39-1.36,1.12-3.42,1.67-4.58.31-.64.4-1.33-.45-1.58s-1.64.67-2.2,1.1A57.22,57.22,0,0,0,146,69.15a18.53,18.53,0,0,1-2.3,1.95c-.49.34-1.17.57-1.6.94.18-2,2.34-3.5,1.88-5.63-.42-1.94-2.7-.63-3.69,0-3.74,2.49-6,6.72-10,8.85.53-2.09,1.81-4.08,2.74-6,.68-1.39,2.19-3.63.94-5.11-1.4-1.64-9.16,6.21-10.39,7.27-2.71,2.34-6,5.08-9.65,5.51-4.79.57-3.39-5.31-2.35-8.1.28-.77,1.07-1.82.55-2.63s-1.34-.34-1.86.25a29.78,29.78,0,0,1-5.25,5c-1.32.92-3,2-4.71,1.53-2-.5-1.79-2.83-1.47-4.41a22.34,22.34,0,0,1,2.65-6.41c.48-.87,3.39-4.37,1.37-4.88-1.41-.36-2.91,2.92-3.57,3.86a57,57,0,0,1-4.15,5.41c-2.23,2.48-6,6-9.63,5.68-1.94-.18-2.71-2-2.8-3.78a14.09,14.09,0,0,1,.31-3.3c.24-1.29,1.57-2.56,2.3-3.63a86.64,86.64,0,0,0,12.53-27q.89-3.43,1.46-6.95c.16-1,1.41-5.44-1-4.44-.82.34-1.38,1.69-1.84,2.38-.67,1-1.32,2-2,3.07-1.35,2.24-2.63,4.53-3.81,6.87a112.1,112.1,0,0,0-6,14.17c-.83,2.43-1.57,4.88-2.2,7.38-.31,1.25-.59,2.49-.83,3.75-.13.63-.24,1.26-.35,1.88a4.3,4.3,0,0,1-1.21,2.07,65.3,65.3,0,0,1-9.19,9.54c-2.92,2.45-6.58,5.58-10.62,5.6-5.8,0-1.56-10-.21-12.37a35.46,35.46,0,0,1,7.17-8.73c1.39-1.3,2.85-2.54,4.33-3.75.8-.64,1.61-1.28,2.4-1.93a10.11,10.11,0,0,0,2.19-1.81A1.16,1.16,0,0,0,76,49.82c-.65-.68-1.28-.27-1.9.2l-6.26,4.61c-4,3-8,5.9-12.05,8.78C63.11,49.8,69.66,34,68.84,18.23ZM96.9,28.57A84.22,84.22,0,0,1,84.26,58.89,96.25,96.25,0,0,1,96.9,28.57ZM46.73,74a88.52,88.52,0,0,1-13.57,16,29.39,29.39,0,0,1-7.84,5.42c-1.8.79-4.57,1.56-6.18,0A4.58,4.58,0,0,1,18,92a11.79,11.79,0,0,1,.24-2.29c.26-1.3.55-1.22,1.74-1.67a65.75,65.75,0,0,0,9.68-4.84c6.41-3.78,12.7-7.79,18.84-12-.59.91-1.17,1.84-1.79,2.74Zm-7.35.54C33,78.6,26.41,83,19.28,85.8a43.8,43.8,0,0,1,6.35-12.18,47.38,47.38,0,0,1,9.27-10.1c1.6-1.22,7.85-4.75,8.24-.54.2,2-.87,4.06-1.66,5.87-.49,1.1-1,2.18-1.6,3.22C39.61,72.56,38.18,74.24,39.38,74.51Zm26.83-47.6C65.23,36,62,44.78,58.29,53.05a137.74,137.74,0,0,1-6.22,12.31c-1.13,2-3.59,3.13-5.44,4.41-2.12,1.42-4.23,2.82-6.38,4.2,2-2.87,4.19-6.08,4.66-9.62.53-4-2.44-6-6.12-5-3.9,1.06-7.08,3.8-9.75,6.75a62.48,62.48,0,0,0-8.32,11.4,45.71,45.71,0,0,0-2.95,6.3c-.36.94-.68,1.89-1,2.86a30.28,30.28,0,0,1-3.4.88c-3.45.67-8.26.8-10.14-2.85s-.63-9.34.39-13.19A93.17,93.17,0,0,1,9.28,57,224.22,224.22,0,0,1,22.87,31.71,94.78,94.78,0,0,1,39.71,11.13c5.12-4.57,13.88-12.21,21-7.29,6.81,4.72,6.3,15.83,5.5,23.06Z"></path></svg>