<svg xmlns="http://www.w3.org/2000/svg" viewBox="0 0 60 60"><path d="M51.21,8.79a30,30,0,0,0-42.42,0,30,30,0,0,0,0,42.42,30,30,0,0,0,42.42,0,30,30,0,0,0,0-42.42ZM3.52,30A26.47,26.47,0,0,1,47.43,10.08l-2,2a4.76,4.76,0,0,0-2.88-1H17.4a4.82,4.82,0,0,0-4.78,4.35l-1.84,3.69a1.76,1.76,0,0,0,.41,2.11,8.59,8.59,0,0,0,2.93,1.55V43.39l-4,4A26.38,26.38,0,0,1,3.52,30ZM17.64,44.85l7.07-7.08v1.34a1.76,1.76,0,0,0,.88,1.52l3.53,2a1.73,1.73,0,0,0,1.76,0l3.53-2a1.76,1.76,0,0,0,.88-1.52V36.05l2.65-1.53A1.78,1.78,0,0,0,38.82,33V28.92a1.76,1.76,0,0,0-.88-1.52l-1.81-1L40,22.46a9,9,0,0,0,2.34.63V45.54a.84.84,0,0,1-.83.84H18.47a.84.84,0,0,1-.83-.84ZM39.35,18.17a1.47,1.47,0,0,0-.36,0,1.67,1.67,0,0,0-1,.34,6.35,6.35,0,0,1-7,0,1.79,1.79,0,0,0-1.94,0,6.35,6.35,0,0,1-7,0,1.71,1.71,0,0,0-2,0,5.44,5.44,0,0,1-4.54,1,5.12,5.12,0,0,1-.81-.27l1.28-2.56a1.75,1.75,0,0,0,.18-.78,1.29,1.29,0,0,1,1.29-1.29H42.6a1.36,1.36,0,0,1,.29,0ZM17.64,23.09a9.29,9.29,0,0,0,3.41-1.15,9.67,9.67,0,0,0,9,0A9.43,9.43,0,0,0,34.42,23h0l-3,3L30,26.89l-2.65-1.53a1.73,1.73,0,0,0-1.76,0l-3.53,2a1.76,1.76,0,0,0-.88,1.52V33a1.78,1.78,0,0,0,.88,1.53l.59.34-5,5ZM35.3,29.93V32l-1.77,1-.89-.51L31.76,32V30.73l1.8-1.8ZM24.7,32V29.93l1.77-1,1.35.78-2.59,2.6Zm3.53,4.07.88-.51L30,35l1.77,1v2l-1.77,1-1.77-1ZM45.35,19.22a4.88,4.88,0,0,1-.68.24,5,5,0,0,1-1.79.15l1.78-1.78ZM30,56.48a26.38,26.38,0,0,1-17.43-6.56l2.16-2.16a4.36,4.36,0,0,0,3.74,2.13H41.53a4.35,4.35,0,0,0,4.35-4.35V22.77a8.79,8.79,0,0,0,2.93-1.55,1.76,1.76,0,0,0,.41-2.11l-1.84-3.69a2.7,2.7,0,0,0,0-.28l2.58-2.57A26.47,26.47,0,0,1,30,56.48Z"></path></svg>