<svg xmlns="http://www.w3.org/2000/svg" viewBox="0 0 268.4 88"><style type="text/css">	.h2-logo-subtitle{fill:#7A89C1;}	.h2-logo-title{fill:#FFFFFF;}</style><path class="h2-logo-subtitle" d="M72.2,68.2h3.6v14.1h7v3.1H72.2V68.2z"></path><path class="h2-logo-subtitle" d="M87.9,68.2h3.6v17.2h-3.6V68.2z"></path><path class="h2-logo-subtitle" d="M100.6,71.3v-3.1h7.9v3.1H100.6z M100.6,78.1v-2.9h7.6v2.9H100.6z M98.3,68.2h3.5v17.2h-3.5V68.2z"></path><path class="h2-logo-subtitle" d="M117.1,85.4v-3h8.9v3H117.1z M117.1,71.2v-3h8.9v3H117.1z M117.1,77.7v-2.9h8.4v2.9H117.1z M114.8,68.2h3.5 v17.2h-3.5V68.2z"></path><path class="h2-logo-subtitle" d="M145.5,81.5l0.4-2.8h8.4l0.4,2.8H145.5z M150.1,73.8l-2.6,5.9l0.1,0.8l-2.3,4.9h-4l8.9-18.2l8.9,18.2H155 l-2.3-4.8l0.1-0.9L150.1,73.8z"></path><path class="h2-logo-subtitle" d="M163.9,68.2h3.7v17.2h-3.7V68.2z M169.9,85.4h-3.7v-3.2h3.5c0.8,0,1.5-0.1,2.2-0.3c0.7-0.2,1.3-0.5,1.8-1 c0.5-0.4,0.9-1,1.2-1.7s0.5-1.5,0.5-2.5c0-0.9-0.2-1.8-0.5-2.4c-0.3-0.7-0.7-1.3-1.2-1.7c-0.5-0.4-1.1-0.8-1.8-1s-1.4-0.3-2.2-0.3 h-3.5v-3.2h3.7c1.8,0,3.4,0.4,4.8,1.1c1.4,0.7,2.5,1.7,3.2,3c0.8,1.3,1.2,2.8,1.2,4.5c0,1.8-0.4,3.3-1.2,4.6c-0.8,1.3-1.9,2.3-3.2,3 C173.3,85,171.7,85.4,169.9,85.4z"></path><path class="h2-logo-subtitle" d="M191.2,79.4l4.7-11.2h4.2l-8.9,18.2l-8.9-18.2h4.1L191.2,79.4z"></path><path class="h2-logo-subtitle" d="M205,68.2h3.6v17.2H205V68.2z"></path><path class="h2-logo-subtitle" d="M218.3,76.8c0,1.1,0.3,2.1,0.8,3c0.5,0.8,1.2,1.5,2.1,1.9c0.9,0.4,1.8,0.7,2.8,0.7c0.8,0,1.6-0.1,2.2-0.3 c0.7-0.2,1.2-0.5,1.8-0.9c0.5-0.4,1-0.8,1.4-1.2v4c-0.7,0.6-1.5,1-2.4,1.3c-0.8,0.3-1.9,0.5-3.2,0.5s-2.6-0.2-3.7-0.6 c-1.1-0.4-2.1-1-3-1.8c-0.8-0.8-1.5-1.7-2-2.8c-0.5-1.1-0.7-2.3-0.7-3.6c0-1.3,0.2-2.5,0.7-3.6s1.1-2,2-2.8s1.8-1.4,3-1.8 s2.4-0.6,3.7-0.6s2.4,0.2,3.2,0.5c0.9,0.3,1.6,0.7,2.4,1.3v4c-0.4-0.4-0.8-0.8-1.4-1.2c-0.5-0.4-1.1-0.6-1.8-0.9 c-0.7-0.2-1.4-0.3-2.2-0.3c-1,0-1.9,0.2-2.8,0.7c-0.9,0.4-1.5,1.1-2.1,1.9C218.6,74.7,218.3,75.7,218.3,76.8z"></path><path class="h2-logo-subtitle" d="M238.2,85.4v-3h8.9v3H238.2z M238.2,71.2v-3h8.9v3H238.2z M238.2,77.7v-2.9h8.4v2.9H238.2z M235.9,68.2h3.5 v17.2h-3.5V68.2z"></path><path class="h2-logo-subtitle" d="M255.2,79.6c0.4,0.6,0.8,1.2,1.2,1.7c0.5,0.5,0.9,0.8,1.5,1.1c0.5,0.3,1.1,0.4,1.7,0.4c0.7,0,1.3-0.2,1.8-0.5 c0.5-0.4,0.7-0.9,0.7-1.5c0-0.5-0.1-1-0.4-1.3s-0.7-0.6-1.2-0.9s-1.2-0.5-2-0.8c-0.4-0.1-0.9-0.3-1.5-0.6c-0.5-0.3-1-0.6-1.5-1 s-0.9-0.9-1.2-1.5s-0.5-1.3-0.5-2.1c0-1,0.3-1.8,0.8-2.5s1.2-1.3,2.1-1.6c0.9-0.4,1.9-0.6,3-0.6s2.1,0.2,2.9,0.6s1.5,0.8,2,1.4 c0.6,0.6,1,1.1,1.3,1.7l-2.8,1.5c-0.2-0.4-0.5-0.8-0.9-1.1c-0.3-0.3-0.7-0.6-1.1-0.8c-0.4-0.2-0.9-0.3-1.4-0.3 c-0.7,0-1.2,0.2-1.6,0.5s-0.5,0.7-0.5,1.1s0.1,0.8,0.4,1.1c0.3,0.3,0.7,0.6,1.3,0.9c0.6,0.3,1.3,0.6,2.2,0.9 c0.6,0.2,1.1,0.4,1.6,0.7c0.5,0.3,1,0.7,1.4,1.1s0.8,0.9,1,1.5c0.3,0.6,0.4,1.2,0.4,1.9c0,0.8-0.2,1.6-0.5,2.2 c-0.3,0.7-0.8,1.2-1.4,1.7c-0.6,0.4-1.2,0.8-2,1c-0.7,0.2-1.5,0.4-2.3,0.4c-1.1,0-2.1-0.2-3-0.6s-1.7-1-2.4-1.6s-1.2-1.4-1.6-2.2 L255.2,79.6z"></path><path class="h2-logo-title" d="M72.3,3.2L72.3,3.2c0,0.2-0.1,0.4-0.1,0.6s0,0.5,0,0.6c0,0.7,0.1,1.6,0.3,2.5c0.2,0.9,0.6,2,1.2,3.4l16,36 L105,10.6c0.4-0.9,0.7-1.9,1.2-2.9c0.4-1.1,0.6-2.1,0.6-3.2c0-0.3,0-0.5-0.1-0.7c0-0.2-0.1-0.4-0.1-0.5V3.2h7.4v0.1 c-0.5,0.5-1,1.3-1.7,2.4c-0.6,1.2-1.4,2.6-2.1,4.4L89.5,55.9h-2.9L67,11.9c-0.5-1-0.9-2-1.4-3s-0.9-1.8-1.4-2.6 c-0.4-0.8-0.8-1.5-1.2-2c-0.3-0.5-0.6-0.9-0.7-1V3.2H72.3z"></path><path class="h2-logo-title" d="M111.4,44.2c0-1.9,0.4-3.5,1.2-4.9c0.8-1.4,1.8-2.6,3.1-3.6s2.8-1.8,4.4-2.4c1.7-0.6,3.4-1.1,5.2-1.4 c1.8-0.4,3.5-0.6,5.3-0.7c1.7-0.1,3.3-0.2,4.8-0.3v-1.8c0-1.6-0.2-3-0.6-4.1c-0.4-1.2-1-2.1-1.7-2.8c-0.7-0.8-1.6-1.3-2.7-1.7 c-1-0.4-2.2-0.6-3.4-0.6c-0.9,0-1.7,0.1-2.6,0.2c-0.8,0.1-1.7,0.4-2.6,0.7c-0.9,0.3-1.8,0.8-2.8,1.4s-2.1,1.3-3.2,2.2l-0.4-0.2 l2.5-5.1c0.8-0.4,1.6-0.6,2.3-0.9c0.8-0.2,1.5-0.4,2.3-0.6s1.6-0.2,2.4-0.3c0.8-0.1,1.7-0.1,2.6-0.1c2.5,0,4.7,0.3,6.4,0.9 c1.8,0.6,3.3,1.4,4.4,2.5c1.2,1.1,2,2.3,2.5,3.7c0.5,1.4,0.8,2.9,0.8,4.6v11.7c0,2,0,3.8,0.1,5.4c0.1,1.5,0.1,2.8,0.2,3.9 c0.1,1.1,0.2,2,0.3,2.8c0.1,0.7,0.3,1.4,0.4,1.9v0.1h-8v-0.1c0.1-0.4,0.2-0.8,0.3-1.3s0.1-1.1,0.2-1.7c-0.5,0.4-1.1,0.9-1.8,1.3 c-0.7,0.5-1.5,0.9-2.3,1.3c-0.9,0.4-1.8,0.6-2.9,0.9c-1.1,0.2-2.2,0.4-3.5,0.4c-4.2,0-7.4-1-9.7-2.9 C112.6,50.6,111.4,47.8,111.4,44.2z M135.3,33.7c-2.2,0-4.3,0.2-6.3,0.4s-3.8,0.7-5.4,1.4c-1.5,0.7-2.8,1.8-3.7,3.1 c-0.9,1.3-1.4,3.1-1.4,5.3c0,2.8,0.7,5,2.1,6.5s3.4,2.2,5.9,2.2c1.2,0,2.2-0.2,3.1-0.5c1-0.3,1.8-0.7,2.5-1.2s1.4-1,1.9-1.6 s0.9-1.2,1.2-1.7c0-0.9,0.1-1.9,0.1-3s0-2.4,0-3.8V33.7z"></path><path class="h2-logo-title" d="M149.6,44.2c0-1.9,0.4-3.5,1.2-4.9s1.8-2.6,3.1-3.6s2.8-1.8,4.4-2.4c1.7-0.6,3.4-1.1,5.2-1.4 c1.8-0.4,3.5-0.6,5.3-0.7c1.7-0.1,3.3-0.2,4.8-0.3v-1.8c0-1.6-0.2-3-0.6-4.1c-0.4-1.2-1-2.1-1.7-2.8c-0.7-0.8-1.6-1.3-2.7-1.7 c-1-0.4-2.2-0.6-3.4-0.6c-0.9,0-1.7,0.1-2.6,0.2c-0.8,0.1-1.7,0.4-2.6,0.7c-0.9,0.3-1.8,0.8-2.8,1.4s-2.1,1.3-3.2,2.2l-0.4-0.2 l2.4-5.1c0.8-0.4,1.6-0.6,2.3-0.9c0.8-0.2,1.5-0.4,2.3-0.6c0.8-0.1,1.6-0.2,2.4-0.3c0.8-0.1,1.7-0.1,2.6-0.1c2.5,0,4.7,0.3,6.4,0.9 c1.8,0.6,3.3,1.4,4.4,2.5c1.2,1.1,2,2.3,2.5,3.7c0.5,1.4,0.8,2.9,0.8,4.6v11.7c0,2,0,3.8,0.1,5.4c0.1,1.5,0.1,2.8,0.2,3.9 c0.1,1.1,0.2,2,0.3,2.8c0.1,0.7,0.3,1.4,0.4,1.9v0.1h-8v-0.1c0.1-0.4,0.2-0.8,0.3-1.3s0.1-1.1,0.2-1.7c-0.5,0.4-1.1,0.9-1.8,1.3 c-0.7,0.5-1.5,0.9-2.3,1.3c-0.9,0.4-1.8,0.6-2.9,0.9c-1.1,0.2-2.2,0.4-3.5,0.4c-4.2,0-7.4-1-9.7-2.9 C150.8,50.6,149.6,47.8,149.6,44.2z M173.5,33.7c-2.2,0-4.3,0.2-6.3,0.4s-3.8,0.7-5.4,1.4c-1.5,0.7-2.8,1.8-3.7,3.1 s-1.4,3.1-1.4,5.3c0,2.8,0.7,5,2.1,6.5c1.4,1.5,3.4,2.2,5.9,2.2c1.2,0,2.2-0.2,3.1-0.5c1-0.3,1.8-0.7,2.5-1.2s1.4-1,1.9-1.6 s0.9-1.2,1.2-1.7c0-0.9,0.1-1.9,0.1-3s0-2.4,0-3.8L173.5,33.7L173.5,33.7z"></path><path class="h2-logo-title" d="M203.7,52.7c0.7,0,1.4-0.1,2.1-0.4c0.7-0.3,1.4-0.6,2.1-1.1c0.7-0.5,1.3-1,1.9-1.5c0.6-0.6,1.2-1.2,1.7-1.9 l0.4,0.2l-2.3,5.8c-0.3,0.1-0.6,0.3-1.1,0.5c-0.4,0.2-0.9,0.4-1.5,0.5c-0.6,0.2-1.3,0.3-2.1,0.5c-0.8,0.1-1.7,0.2-2.8,0.2 c-3.2,0-5.7-0.9-7.5-2.6c-1.8-1.8-2.7-4.5-2.7-8.2V11.3l-76.1,0.2V8.3c0.7,0,52.7,0.1,53.7,0.1s21.1,0,22.3,0c0-1.7-0.1,4.4-0.1,3.1 s-0.1-4.4-0.2-5.3c-0.1-1-0.2-3.7-0.3-4.4s-0.2-1.2-0.4-1.7V0h8.3v0.1c-0.1,0.5-0.3,1-0.4,1.7c-0.1,0.7-0.2,3.4-0.3,4.3 c-0.1,1-0.1,4-0.2,5.3c0,1.3-0.1-4.8-0.1-3c1.5,0,3,0,4.4-0.1c1.5,0,4.7-0.1,5.9-0.1c1.2-0.1,4.1-0.1,4.9-0.2 c0.8-0.1,5.2-0.1,3.5-0.2l-2.5,3.7c-1.2,0-4.4-0.1-5.7-0.1c-1.2,0-4.4-0.1-5.9-0.1s-3,0-4.6-0.1v34.2c0,1.5,0.2,2.7,0.5,3.6 c0.3,0.9,0.8,1.6,1.3,2.2c0.5,0.5,1.1,0.9,1.8,1.1C202.4,52.6,203,52.7,203.7,52.7z"></path><path class="h2-logo-title" d="M243.8,30.5c0-3.2-0.6-5.5-1.9-7c-1.3-1.5-3-2.2-5.1-2.2c-0.8,0-1.7,0.2-2.7,0.5s-2,0.7-3,1.3 c-1,0.6-2,1.2-3,1.9c-1,0.7-1.9,1.5-2.8,2.3v13.4c0,2,0,3.8,0.1,5.4c0,1.5,0.1,2.8,0.2,3.9c0.1,1.1,0.2,2,0.3,2.8 c0.1,0.7,0.3,1.4,0.4,1.9v0.1H218v-0.1c0.1-0.5,0.3-1.1,0.4-1.9c0.1-0.7,0.3-1.7,0.3-2.8c0.1-1.1,0.2-2.4,0.2-3.9 c0.1-1.5,0.1-3.3,0.1-5.4V15c0-2,0-3.8-0.1-5.3c0-1.5-0.1-2.9-0.2-4c-0.1-1.1-0.2-2-0.3-2.8c-0.1-0.7-0.3-1.4-0.4-1.9v0h8.3v0.1 c-0.1,0.5-0.3,1.1-0.4,1.9s-0.2,1.7-0.3,2.8s-0.2,2.4-0.2,4c0,1.5-0.1,3.3-0.1,5.3v9.2c1-0.9,2-1.7,3.2-2.6c1.2-0.8,2.4-1.6,3.6-2.3 c1.2-0.7,2.5-1.2,3.8-1.6s2.6-0.6,3.8-0.6c1.9,0,3.5,0.3,4.8,1c1.3,0.6,2.4,1.5,3.2,2.6s1.4,2.3,1.8,3.6c0.4,1.3,0.6,2.7,0.6,4.1 v12.2c0,2,0,3.8,0.1,5.4c0,1.5,0.1,2.8,0.2,3.9c0.1,1.1,0.2,2,0.3,2.8c0.1,0.7,0.3,1.4,0.4,1.9v0.1h-8.3v-0.1 c0.1-0.5,0.3-1.1,0.4-1.9c0.1-0.7,0.3-1.7,0.3-2.8c0.1-1.1,0.2-2.4,0.2-3.9c0.1-1.5,0.1-3.3,0.1-5.4L243.8,30.5L243.8,30.5z"></path><path class="h2-logo-title" d="M261.2,32c0-2,0-3.8-0.1-5.3c0-1.5-0.1-2.9-0.2-4s-0.2-2-0.3-2.8c-0.1-0.7-0.3-1.4-0.4-1.9v-0.1h8.3V18 c-0.1,0.5-0.3,1.1-0.4,1.9s-0.2,1.7-0.3,2.8s-0.2,2.4-0.2,4c0,1.5-0.1,3.3-0.1,5.3v8.7c0,2,0,3.8,0.1,5.4c0,1.5,0.1,2.8,0.2,3.9 s0.2,2,0.3,2.8c0.1,0.7,0.3,1.4,0.4,1.9v0.1h-8.3v-0.1c0.1-0.5,0.3-1.1,0.4-1.9c0.1-0.7,0.3-1.7,0.3-2.8c0.1-1.1,0.2-2.4,0.2-3.9 c0.1-1.5,0.1-3.3,0.1-5.4V32z M260.4,7c0-0.5,0.1-1,0.3-1.5c0.2-0.5,0.5-0.9,0.8-1.2c0.3-0.4,0.7-0.6,1.2-0.8s1-0.3,1.5-0.3 c0.6,0,1.1,0.1,1.5,0.3c0.5,0.2,0.9,0.5,1.2,0.8c0.4,0.3,0.6,0.7,0.8,1.2C267.9,6,268,6.4,268,7c0,1.1-0.4,2-1.1,2.8 c-0.7,0.7-1.7,1.1-2.8,1.1c-0.6,0-1.1-0.1-1.5-0.3c-0.5-0.2-0.9-0.5-1.2-0.8c-0.3-0.4-0.6-0.8-0.8-1.2C260.5,8.1,260.4,7.6,260.4,7z "></path><path class="h2-logo-title" d="M11.2,64.9c-7.8-3.5-0.6-5.7,11-8.1c12-2.5,11.8-4.8-3.7-8.9c-23-6.2-25.3-8.5-3.4-14.5 c12.2-3.4,7.2-4.5,7.2-7.6l1.4-24.2c0-0.9,0.7-1.5,1.5-1.5s1.5,0.6,1.5,1.5l1.2,15c0.2,7.1,0.5,8.6,8,11.6c8.3,3.3,5.1,6.4-5.6,8.7 c-15.6,3.3-8,4.1,9.6,9.6c17.7,5.6,17.2,7.6-4.4,14c-12.4,3.7-7.4,5.2-7.7,8.8L27,86.5c-0.1,0.8-0.7,1.5-1.5,1.5S24,87.4,24,86.5 l-0.8-10.9C22.6,69.2,21,69.3,11.2,64.9z"></path></svg>