<svg xmlns="http://www.w3.org/2000/svg" viewBox="0 0 60 60"><path d="M58.24,33.53h-7.1A8.8,8.8,0,1,0,37.06,23a8.78,8.78,0,0,0-14.12,0A8.8,8.8,0,1,0,8.86,33.53H1.76a1.76,1.76,0,0,0,0,3.52h5.3v1.77a1.76,1.76,0,1,0,3.52,0V37.05H49.42v1.77a1.76,1.76,0,0,0,3.52,0V37.05h5.3a1.76,1.76,0,0,0,0-3.52ZM44.12,22.94a5.29,5.29,0,1,1-5.29,5.29A5.29,5.29,0,0,1,44.12,22.94ZM30,22.94a5.29,5.29,0,1,1-5.29,5.29A5.29,5.29,0,0,1,30,22.94Zm-14.12,0a5.29,5.29,0,1,1-5.29,5.29A5.3,5.3,0,0,1,15.88,22.94Z"></path><path d="M15.88,30a1.78,1.78,0,0,0,1.76-1.76,1.8,1.8,0,0,0-1.76-1.76,1.76,1.76,0,0,0,0,3.52Z"></path><path d="M30,30a1.76,1.76,0,1,0-1.76-1.76A1.78,1.78,0,0,0,30,30Z"></path><path d="M44.12,30a1.76,1.76,0,1,0-1.76-1.76A1.8,1.8,0,0,0,44.12,30Z"></path></svg>