<svg xmlns="http://www.w3.org/2000/svg" viewBox="0 0 40 16"><style type="text/css">	.wdt-master-color-1{fill:#FF5F00;}	.wdt-master-color-2{fill:#EB001B;}	.wdt-master-color-3{fill:#F79E1B;}	.wdt-master-color-4{fill:#1A1A1A;}</style><path class="wdt-master-color-1" d="M17.5,1.5l8.1,0.7v13l-10.1-2L17.5,1.5z"></path><path class="wdt-master-color-2" d="M17,8c0-1.2,0.3-2.3,0.8-3.4c0.5-1.1,1.3-2,2.2-2.7c-1-0.8-2.2-1.3-3.4-1.5c-1.2-0.2-2.5-0.2-3.7,0.2 c-1.2,0.4-2.3,1-3.2,1.8S8,4.3,7.6,5.5C7.2,6.6,7.1,7.9,7.3,9.1c0.2,1.2,0.7,2.4,1.4,3.4c0.7,1,1.7,1.8,2.8,2.4 c1.1,0.6,2.4,0.9,3.6,0.9c1.8,0,3.5-0.6,4.9-1.7c-0.9-0.7-1.7-1.7-2.2-2.7C17.2,10.3,17,9.2,17,8z"></path><path class="wdt-master-color-3" d="M32.8,8c0,1.5-0.4,2.9-1.2,4.1s-1.9,2.2-3.3,2.9c-1.3,0.6-2.8,0.9-4.3,0.7c-1.5-0.2-2.9-0.7-4.1-1.6 c0.9-0.7,1.7-1.7,2.2-2.7C22.7,10.3,23,9.2,23,8c0-1.2-0.3-2.3-0.8-3.4c-0.5-1.1-1.3-2-2.2-2.7c1.2-0.9,2.6-1.5,4.1-1.6 c1.5-0.2,3,0.1,4.3,0.7c1.3,0.6,2.5,1.6,3.3,2.9C32.4,5.1,32.8,6.5,32.8,8z"></path><path class="wdt-master-color-4" d="M11.2,7.5c-0.1-0.1-0.2-0.1-0.3-0.2c-0.1,0-0.2,0-0.3,0c-0.1,0-0.3,0-0.4,0.1c-0.1,0.1-0.2,0.1-0.3,0.3 C9.8,7.6,9.7,7.5,9.6,7.4S9.3,7.3,9.2,7.3c-0.1,0-0.2,0-0.3,0.1S8.6,7.5,8.6,7.6V7.4H8.1v1.9h0.5V8.3c0-0.3,0.2-0.5,0.5-0.5 c0.3,0,0.5,0.2,0.5,0.5v1.1H10V8.3c0-0.1,0-0.1,0-0.2C10,8,10,7.9,10.1,7.9c0,0,0.1-0.1,0.2-0.1c0.1,0,0.1,0,0.2,0 c0.3,0,0.5,0.2,0.5,0.5v1.1l0.5,0V8.1c0-0.1,0-0.2,0-0.3C11.4,7.7,11.3,7.6,11.2,7.5z"></path><path class="wdt-master-color-4" d="M17.8,9c-0.2,0-0.3-0.1-0.3-0.3V7.8h0.7l0-0.4h-0.7V6.8H17v0.6h-0.4v0.4H17v0.9c0,0.4,0.2,0.7,0.7,0.7 c0.2,0,0.4-0.1,0.6-0.1l-0.1-0.4C18.1,8.9,17.9,9,17.8,9z"></path><path class="wdt-master-color-4" d="M22.1,7.3c-0.1,0-0.2,0-0.3,0.1c-0.1,0-0.2,0.1-0.2,0.2V7.4h-0.5v1.9h0.5V8.2c0-0.3,0.2-0.5,0.4-0.5 c0.1,0,0.2,0,0.3,0l0.1-0.4C22.3,7.3,22.2,7.3,22.1,7.3L22.1,7.3z"></path><path class="wdt-master-color-4" d="M15.6,8.1l-0.2,0c-0.2,0-0.3-0.1-0.3-0.2c0-0.1,0.2-0.2,0.4-0.2c0.2,0,0.5,0.1,0.7,0.2l0.2-0.3 c-0.3-0.1-0.6-0.2-0.9-0.2c-0.5,0-0.9,0.2-0.9,0.6c0,0.3,0.3,0.5,0.7,0.6l0.2,0c0.2,0,0.4,0.1,0.4,0.2c0,0.1-0.2,0.2-0.5,0.2 c-0.2,0-0.5-0.1-0.7-0.2l-0.2,0.3c0.3,0.2,0.6,0.2,0.9,0.2c0.6,0,1-0.3,1-0.6C16.3,8.4,16,8.2,15.6,8.1z"></path><path class="wdt-master-color-4" d="M28.4,7.3c-0.1,0-0.2,0-0.3,0.1c-0.1,0-0.2,0.1-0.2,0.2V7.4h-0.5v1.9h0.5V8.2c0-0.3,0.2-0.5,0.4-0.5 c0.1,0,0.2,0,0.3,0l0.1-0.4C28.6,7.3,28.5,7.3,28.4,7.3L28.4,7.3z"></path><path class="wdt-master-color-4" d="M23.2,7.9c0.1-0.1,0.1-0.1,0.2-0.1c0.1,0,0.2,0,0.3-0.1c0.2,0,0.4,0.1,0.5,0.2l0.2-0.3 c-0.2-0.2-0.5-0.2-0.7-0.2c-0.1,0-0.3,0-0.4,0.1c-0.1,0-0.3,0.1-0.4,0.2c-0.1,0.1-0.2,0.2-0.2,0.3c-0.1,0.1-0.1,0.3-0.1,0.4 c0,0.1,0,0.3,0.1,0.4c0.1,0.1,0.1,0.2,0.2,0.3c0.1,0.1,0.2,0.2,0.4,0.2s0.3,0.1,0.4,0.1c0.3,0,0.5-0.1,0.7-0.2l-0.2-0.3 C24,8.9,23.8,9,23.6,9c-0.1,0-0.2,0-0.3,0c-0.1,0-0.2-0.1-0.2-0.1S23.1,8.7,23,8.6c0-0.1,0-0.2,0-0.2c0-0.1,0-0.2,0-0.2 C23.1,8,23.1,8,23.2,7.9z"></path><path class="wdt-master-color-4" d="M26.3,7.6c-0.1-0.1-0.2-0.2-0.3-0.2c-0.1,0-0.2-0.1-0.4-0.1c-0.3,0-0.5,0.1-0.7,0.3c-0.2,0.2-0.3,0.4-0.3,0.7 c0,0.3,0.1,0.5,0.3,0.7c0.2,0.2,0.5,0.3,0.7,0.3c0.1,0,0.3,0,0.4-0.1c0.1,0,0.2-0.1,0.3-0.2v0.2h0.5v-1v-1h-0.5V7.6z M26.4,8.4 c0,0.1,0,0.2,0,0.2c0,0.1-0.1,0.1-0.1,0.2c-0.1,0.1-0.1,0.1-0.2,0.1c-0.1,0-0.2,0-0.3,0c-0.1,0-0.2,0-0.3,0c-0.1,0-0.2-0.1-0.2-0.1 s-0.1-0.1-0.1-0.2c0-0.1,0-0.2,0-0.2c0-0.1,0-0.2,0-0.2c0-0.1,0.1-0.1,0.1-0.2c0.1-0.1,0.1-0.1,0.2-0.1c0.1,0,0.2,0,0.3,0 c0.1,0,0.2,0,0.3,0c0.1,0,0.2,0.1,0.2,0.1C26.3,8,26.3,8,26.3,8.1C26.4,8.2,26.4,8.3,26.4,8.4z"></path><path class="wdt-master-color-4" d="M20.4,7.7c-0.1-0.1-0.2-0.2-0.3-0.2c-0.1-0.1-0.3-0.1-0.4-0.1v0c-0.3,0-0.6,0.1-0.8,0.3 c-0.2,0.2-0.3,0.4-0.3,0.7c0,0.3,0.1,0.5,0.3,0.7c0.2,0.2,0.5,0.3,0.8,0.3c0.3,0,0.6-0.1,0.9-0.3l-0.2-0.3C20.1,8.9,19.9,9,19.7,9 c-0.1,0-0.3,0-0.4-0.1c-0.1-0.1-0.2-0.2-0.2-0.3h1.5V8.4c0-0.1,0-0.3,0-0.4C20.5,7.9,20.5,7.8,20.4,7.7z M19.1,8.2 c0-0.1,0.1-0.2,0.2-0.3c0.1-0.1,0.2-0.1,0.4-0.1c0,0,0,0,0,0h0c0,0,0,0,0,0c0.1,0,0.1,0,0.2,0c0.1,0,0.1,0.1,0.2,0.1 c0,0,0.1,0.1,0.1,0.2c0,0.1,0,0.1,0,0.2H19.1z"></path><path class="wdt-master-color-4" d="M30.5,6.6v1c-0.1-0.1-0.2-0.2-0.3-0.2c-0.1,0-0.2-0.1-0.4-0.1c-0.3,0-0.5,0.1-0.7,0.3c-0.2,0.2-0.3,0.4-0.3,0.7 s0.1,0.5,0.3,0.7c0.2,0.2,0.5,0.3,0.7,0.3c0.1,0,0.3,0,0.4-0.1c0.1,0,0.2-0.1,0.3-0.2v0.2H31v-1V6.6H30.5z M30.5,8.6 c0,0.1-0.1,0.1-0.1,0.2c-0.1,0.1-0.1,0.1-0.2,0.1c-0.1,0-0.2,0-0.3,0c-0.1,0-0.2,0-0.3,0s-0.2-0.1-0.2-0.1c-0.1-0.1-0.1-0.1-0.1-0.2 c0-0.1,0-0.2,0-0.2c0-0.1,0-0.2,0-0.2c0-0.1,0.1-0.1,0.1-0.2c0.1-0.1,0.1-0.1,0.2-0.1s0.2,0,0.3,0c0.1,0,0.2,0,0.3,0 c0.1,0,0.2,0.1,0.2,0.1C30.5,8,30.5,8,30.5,8.1c0,0.1,0,0.2,0,0.2C30.6,8.4,30.6,8.5,30.5,8.6z"></path><path class="wdt-master-color-4" d="M13.5,7.6c-0.1-0.1-0.2-0.2-0.3-0.2S13,7.3,12.9,7.3c-0.3,0-0.5,0.1-0.7,0.3c-0.2,0.2-0.3,0.4-0.3,0.7 s0.1,0.5,0.3,0.7c0.2,0.2,0.5,0.3,0.7,0.3c0.1,0,0.3,0,0.4-0.1c0.1,0,0.2-0.1,0.3-0.2v0.2H14v-1v-1h-0.5V7.6z M13.5,8.6 c0,0.1-0.1,0.1-0.1,0.2c-0.1,0.1-0.1,0.1-0.2,0.1c-0.1,0-0.2,0-0.3,0c-0.1,0-0.2,0-0.3,0c-0.1,0-0.2-0.1-0.2-0.1 c-0.1-0.1-0.1-0.1-0.1-0.2c0-0.1,0-0.2,0-0.2c0-0.1,0-0.2,0-0.2c0-0.1,0.1-0.1,0.1-0.2c0.1-0.1,0.1-0.1,0.2-0.1c0.1,0,0.2,0,0.3,0 c0.1,0,0.2,0,0.3,0c0.1,0,0.2,0.1,0.2,0.1C13.5,8,13.5,8,13.5,8.1c0,0.1,0,0.2,0,0.2C13.6,8.4,13.6,8.5,13.5,8.6z"></path></svg>