<svg xmlns="http://www.w3.org/2000/svg" viewBox="0 0 40 16"><style type="text/css">	.wdt-pal{fill:#179BD7;}</style><path d="M5.4,5.6c-0.2,1.1-1,1.1-1.8,1.1H3.1l0.3-2c0-0.1,0-0.1,0.1-0.1c0,0,0.1-0.1,0.2-0.1h0.2c0.6,0,1.1,0,1.3,0.3 C5.3,4.9,5.4,5,5.4,5.1C5.5,5.3,5.4,5.4,5.4,5.6z M5.1,2.8H2c-0.1,0-0.2,0-0.3,0.1C1.6,3,1.6,3.1,1.6,3.2l-1.2,7.5c0,0,0,0.1,0,0.1 c0,0,0,0.1,0.1,0.1c0,0,0.1,0,0.1,0.1c0,0,0.1,0,0.1,0H2c0.1,0,0.2,0,0.3-0.1c0.1-0.1,0.1-0.2,0.1-0.2l0.3-2c0-0.1,0.1-0.2,0.1-0.2 C3,8.3,3.1,8.2,3.2,8.2h1c2,0,3.2-0.9,3.5-2.8c0.1-0.3,0.1-0.7,0-1C7.6,4.1,7.5,3.8,7.3,3.6C7,3.3,6.6,3.1,6.3,3 C5.9,2.8,5.5,2.8,5.1,2.8z"></path><path d="M12.1,8.8c-0.1,0.4-0.3,0.8-0.6,1c-0.3,0.3-0.7,0.4-1.1,0.4c-0.2,0-0.4,0-0.6-0.1C9.6,10,9.5,9.9,9.3,9.8 C9.2,9.6,9.1,9.5,9.1,9.3c0-0.2,0-0.4,0-0.5c0.1-0.4,0.3-0.8,0.6-1s0.7-0.4,1.1-0.4c0.2,0,0.4,0,0.6,0.1c0.2,0.1,0.3,0.2,0.5,0.3 C11.9,7.9,12,8,12.1,8.2C12.1,8.4,12.1,8.6,12.1,8.8z M14.2,5.9h-1.5c-0.1,0-0.1,0-0.2,0.1c0,0-0.1,0.1-0.1,0.2l-0.1,0.4l-0.1-0.1 C12,6.2,11.7,6,11.4,5.9c-0.3-0.1-0.6-0.1-1-0.1c-0.8,0-1.6,0.3-2.3,0.9c-0.6,0.5-1,1.3-1.1,2.1C7,9.1,7,9.5,7.1,9.9 c0.1,0.4,0.3,0.7,0.5,1.1c0.2,0.3,0.5,0.5,0.9,0.6c0.3,0.1,0.7,0.2,1,0.2c0.4,0,0.8-0.1,1.1-0.2c0.4-0.1,0.7-0.4,1-0.6l-0.1,0.4 c0,0,0,0.1,0,0.1c0,0,0,0.1,0.1,0.1c0,0,0.1,0.1,0.1,0.1c0,0,0.1,0,0.1,0h1.4c0.1,0,0.2,0,0.3-0.1c0.1-0.1,0.1-0.2,0.1-0.3l0.8-5 c0,0,0-0.1,0-0.1c0,0,0-0.1-0.1-0.1c0,0-0.1-0.1-0.1-0.1C14.2,5.9,14.2,5.9,14.2,5.9"></path><path d="M22.3,5.8h-1.5c-0.1,0-0.1,0-0.2,0c-0.1,0-0.1,0.1-0.2,0.1l-2.1,2.9l-0.9-2.8c0-0.1-0.1-0.2-0.2-0.2 c-0.1-0.1-0.2-0.1-0.3-0.1h-1.5c0,0-0.1,0-0.1,0c0,0-0.1,0-0.1,0.1c0,0,0,0.1,0,0.1c0,0,0,0.1,0,0.1l1.7,4.6l-1.6,2.1 c0,0,0,0.1,0,0.1c0,0,0,0.1,0,0.1c0,0,0.1,0.1,0.1,0.1c0,0,0.1,0,0.1,0H17c0.1,0,0.1,0,0.2,0s0.1-0.1,0.2-0.1l5.1-6.9 c0,0,0-0.1,0-0.1c0,0,0-0.1,0-0.1s-0.1-0.1-0.1-0.1C22.4,5.8,22.4,5.8,22.3,5.8"></path><path class="wdt-pal" d="M26.9,5.6c-0.2,1.1-1,1.1-1.8,1.1h-0.5l0.3-2c0-0.1,0-0.1,0.1-0.1c0,0,0.1-0.1,0.2-0.1h0.2c0.6,0,1.1,0,1.3,0.3 C26.9,4.9,26.9,5,27,5.1C27,5.3,27,5.4,26.9,5.6 M26.6,2.8h-3.1c-0.1,0-0.2,0-0.3,0.1s-0.1,0.2-0.1,0.2l-1.2,7.5c0,0,0,0.1,0,0.1 c0,0,0,0.1,0.1,0.1c0,0,0.1,0,0.1,0.1c0,0,0.1,0,0.1,0h1.6c0.1,0,0.1,0,0.2-0.1c0.1,0,0.1-0.1,0.1-0.2l0.4-2.1 c0-0.1,0.1-0.2,0.1-0.2c0.1-0.1,0.2-0.1,0.3-0.1h1c2,0,3.2-0.9,3.5-2.8c0.1-0.3,0.1-0.7,0-1c-0.1-0.3-0.2-0.6-0.4-0.9 c-0.3-0.3-0.6-0.5-1-0.6C27.4,2.8,27,2.8,26.6,2.8"></path><path class="wdt-pal" d="M34.3,8.8c-0.1,0.4-0.3,0.8-0.6,1c-0.3,0.3-0.7,0.4-1.1,0.4c-0.2,0-0.4,0-0.6-0.1c-0.2-0.1-0.3-0.2-0.5-0.3 c-0.1-0.1-0.2-0.3-0.3-0.5c0-0.2,0-0.4,0-0.5c0.1-0.4,0.3-0.8,0.6-1c0.3-0.3,0.7-0.4,1.1-0.4c0.2,0,0.4,0,0.6,0.1 c0.2,0.1,0.3,0.2,0.5,0.3c0.1,0.1,0.2,0.3,0.2,0.5C34.4,8.4,34.4,8.6,34.3,8.8z M36.4,5.9h-1.5c-0.1,0-0.1,0-0.2,0.1 c0,0-0.1,0.1-0.1,0.2l-0.1,0.4l-0.1-0.1C34.3,6.2,34,6,33.7,5.9c-0.3-0.1-0.6-0.1-1-0.1c-0.8,0-1.6,0.3-2.3,0.9s-1,1.3-1.1,2.1 c-0.1,0.4-0.1,0.8,0,1.2c0.1,0.4,0.3,0.7,0.5,1.1c0.2,0.3,0.5,0.5,0.9,0.6c0.3,0.1,0.7,0.2,1,0.2c0.4,0,0.8-0.1,1.1-0.2 c0.4-0.1,0.7-0.4,1-0.6l-0.1,0.4c0,0,0,0.1,0,0.1c0,0,0,0.1,0.1,0.1c0,0,0.1,0.1,0.1,0.1c0,0,0.1,0,0.1,0h1.4c0.1,0,0.2,0,0.3-0.1 c0.1-0.1,0.1-0.2,0.1-0.3l0.8-5c0,0,0-0.1,0-0.1c0,0,0-0.1-0.1-0.1c0,0-0.1-0.1-0.1-0.1C36.5,5.9,36.5,5.9,36.4,5.9"></path><path class="wdt-pal" d="M37.9,3l-1.2,7.7c0,0,0,0.1,0,0.1s0,0.1,0,0.1c0,0,0.1,0,0.1,0.1c0,0,0.1,0,0.1,0h1.2c0.1,0,0.2,0,0.3-0.1 c0.1-0.1,0.1-0.2,0.1-0.2l1.2-7.5c0,0,0-0.1,0-0.1c0,0,0-0.1,0-0.1c0,0,0,0-0.1-0.1s-0.1,0-0.1,0h-1.3c-0.1,0-0.1,0-0.2,0.1 C37.9,2.9,37.9,3,37.9,3"></path></svg>