<svg xmlns="http://www.w3.org/2000/svg" viewBox="0 0 10 10"><path d="M9.9,0.7C9.8,0.6,9.6,0.5,9.4,0.5C9.2,0.5,9,0.6,8.9,0.7l0,0c0,0,0,0-0.1,0c-1.3,0.9-2.4,2-3.4,3.1c-0.9,0.9-1.6,1.9-2.2,3 C3.1,6.8,3,6.7,3,6.6C2.6,6,1.9,5.1,1,4.6C0.9,4.5,0.8,4.5,0.6,4.5c-0.1,0-0.2,0-0.3,0.1C0.2,4.6,0.1,4.7,0.1,4.8 c-0.2,0.3,0.1,0.6,0.2,0.8c1,1.2,1.6,2.4,1.9,3c0,0.1,0.1,0.2,0.1,0.2c0.2,0.3,0.5,0.6,0.9,0.6l0,0l0,0C3.8,9.4,4.1,9,4.2,8.8 c0,0,0-0.1,0.1-0.1l0,0c1.5-3.1,3.3-5.4,5.3-6.9c0,0,0,0,0,0c0.1-0.1,0.2-0.2,0.3-0.3C10,1.2,10.1,0.9,9.9,0.7L9.9,0.7z"></path></svg>