<svg xmlns="http://www.w3.org/2000/svg" viewBox="0 0 61 53"><path d="M24,41.4c0,3.3-1.2,6.1-3.5,8.3c-2.3,2.2-5.2,3.3-8.7,3.3c-3.3,0-6.1-1.3-8.4-3.8S0,43.4,0,39.5c0-2.8,0.6-5.9,1.9-9.3 c1.3-3.4,3-6.8,5.1-10.3c2.1-3.5,4.5-6.9,7.2-10.3C16.8,6.2,19.5,3,22.3,0l3.3,2.7c-3.7,4.4-6.8,8.8-9.3,13.3 c-2.5,4.5-4,8.8-4.5,13.1c3.3,0.2,6.1,1.5,8.5,3.7C22.8,35,24,37.9,24,41.4z"></path><path d="M59.5,41.4c0,3.3-1.2,6.1-3.5,8.3c-2.3,2.2-5.2,3.3-8.7,3.3c-3.3,0-6.1-1.3-8.4-3.8c-2.3-2.6-3.5-5.8-3.5-9.7 c0-2.8,0.6-5.9,1.9-9.3c1.3-3.4,3-6.8,5.1-10.3c2.1-3.5,4.5-6.9,7.2-10.3C52.3,6.2,55.1,3,57.8,0L61,2.7c-3.7,4.4-6.8,8.8-9.3,13.3 c-2.4,4.5-3.8,8.8-4.3,13.1c3.3,0.2,6.1,1.5,8.5,3.7C58.3,35,59.5,37.9,59.5,41.4z"></path></svg>