<svg xmlns="http://www.w3.org/2000/svg" viewBox="0 0 237 107"><path d="M74.8,19.8C74.3,10.6,70.7-0.8,59.5,0c-5,0.4-9.3,3.3-13.2,6.3c-4.1,3.2-7.9,6.5-11.4,10.3c-7.2,8-12.9,17.2-18.1,26.5 c-5.5,9.9-10.9,20.2-14.3,31c-1.7,5.4-3.7,12.3-1.6,17.9c2.6,7,10.7,6.6,16.7,4.9c-0.5,2.8-0.5,5.9,1.4,8.2c1.6,1.9,4.2,1.9,6.5,1.5 c5.8-1.1,10.6-5.6,14.8-9.7c4.6-4.4,8.5-9.4,12.1-14.6c1.8-2.6,3.5-5.3,5.1-8c0.8-1.3,2.6-2.1,3.8-3c1.5-1.1,3-2.2,4.6-3.3 c-2.6,3.6-5.3,8.1-5.9,12.5c-0.5,3.8,1.4,8.5,5.8,8.5c4.1,0,8.1-3,11.2-5.3c4.1-3,7.7-6.7,10.9-10.6c-0.3,4.2,2.2,8,6.8,7.2 c4.3-0.7,8-3.9,10.7-7.1c-0.8,3.3-0.5,7.5,3.6,8c3.7,0.4,7.1-2.1,9.6-4.5c-0.5,2.3-0.8,5.2,0.6,7.2c1.8,2.5,5.7,1.7,8.2,0.8 c6.5-2.3,10.8-8.3,16.2-12.3c-1,2.4-2.4,4.6-3.3,7c-0.8,2-1.2,5.7,2,4.2c2.3-1.1,4.3-2.8,6.1-4.6c2-2,3.7-4.5,6.2-5.9 c-0.3,1.1-3.5,6.4-0.9,7c1.6,0.4,3.7-1.1,4.9-2c1.7-1.3,3.1-2.9,4.6-4.4c-0.6,1.6-0.7,4.1,1.4,4.5c1.9,0.4,3.6-1.6,4.7-2.8 c0.7,4.2,5.5,1.9,7.5,0.3c3.3-2.6,6.6-4.6,10.7-6c-1,2.3-2.2,4.5-3,6.9c-0.5,1.7-1.2,4.1,0.1,5.6c1.9,2.2,6,0.8,8.1-0.2 c5.1-2.2,9.7-5.6,14.6-8.3c4.6-2.5,10.1-5.5,15.5-4.5c2.5,0.4,4.8,1,7.4,0.6c1-0.1,6.9-1.2,6.9-2.3c0-1-2.1,0-2.5,0.1 c-1.3,0.3-2.6,0.5-4,0.5c-2.9,0.1-5.5-0.5-8.3-1c-5.1-0.8-10.5,1.7-14.9,4c-4.6,2.4-9,5.4-13.6,7.9c-1.2,0.7-7.9,4.3-8.2,1.1 c-0.3-3.8,2.8-7.8,4.1-11.2c1-2.8-2.2-1.5-3.5-1c-2.1,0.8-4.1,1.6-6,2.7c-1.9,1-3.5,2.3-5.2,3.6c-0.6,0.4-2.8,2.4-3.5,1.2 c-0.5-0.8,0-2.3,0.4-3c0.3-0.6,0.4-1.3-0.3-1.7c-0.8-0.4-1.5,0.5-2,1.1c-0.2,0.2-4.5,5.2-4.8,4c-0.4-1.5,1.2-3.7,1.8-5 c0.3-0.7,0.4-1.5-0.5-1.7c-0.8-0.2-1.8,0.7-2.4,1.2c-1.8,1.3-3.3,2.9-4.9,4.4c-0.8,0.8-1.6,1.5-2.5,2.1c-0.5,0.4-1.3,0.6-1.7,1 c0.2-2.2,2.5-3.8,2-6.1c-0.5-2.1-2.9-0.7-4,0c-4.1,2.7-6.5,7.3-10.9,9.6c0.6-2.3,2-4.4,3-6.5c0.7-1.5,2.4-3.9,1-5.6 c-1.5-1.8-10,6.8-11.3,7.9c-3,2.5-6.5,5.5-10.5,6c-5.2,0.6-3.7-5.8-2.6-8.8c0.3-0.8,1.2-2,0.6-2.9c-0.6-1-1.4-0.4-2,0.3 c-1.7,2-3.5,3.9-5.7,5.4c-1.4,1-3.3,2.1-5.1,1.7c-2.2-0.5-1.9-3.1-1.6-4.8c0.5-2.5,1.7-4.8,2.9-7c0.5-1,3.7-4.8,1.5-5.3 c-1.5-0.4-3.2,3.2-3.9,4.2c-1.4,2-2.9,4-4.5,5.9c-2.4,2.7-6.5,6.5-10.5,6.2c-2.1-0.2-3-2.2-3-4.1c-0.1-1.2,0.1-2.4,0.3-3.6 c0.3-1.4,1.7-2.8,2.5-3.9c6.1-9,10.9-18.8,13.6-29.4c0.6-2.5,1.2-5,1.6-7.6c0.2-1,1.5-5.9-1.1-4.8c-0.9,0.4-1.5,1.8-2,2.6 c-0.7,1.1-1.4,2.2-2.1,3.3c-1.5,2.4-2.9,4.9-4.1,7.5c-2.5,5-4.7,10.1-6.5,15.4c-0.9,2.6-1.7,5.3-2.4,8c-0.3,1.4-0.6,2.7-0.9,4.1 c-0.1,0.7-0.3,1.4-0.4,2c-0.2,1-0.7,1.5-1.3,2.3c-3,3.8-6.3,7.3-10,10.4c-3.2,2.7-7.2,6.1-11.5,6.1c-6.3,0-1.7-10.8-0.2-13.5 c2-3.6,4.8-6.7,7.8-9.5c1.5-1.4,3.1-2.8,4.7-4.1c0.9-0.7,1.7-1.4,2.6-2.1c0.7-0.6,1.9-1.2,2.4-2c0.3-0.5,0.1-1.1-0.3-1.5 c-0.7-0.7-1.4-0.3-2.1,0.2c-2.3,1.7-4.5,3.3-6.8,5c-4.3,3.2-8.7,6.4-13.1,9.5C68.6,54.2,75.7,37,74.8,19.8L74.8,19.8z M105.4,31.1 c-2.2,11.8-7.2,23-13.7,33C94.3,52.4,99,41.2,105.4,31.1z M50.8,80.4c-4.2,6.3-9.1,12.2-14.8,17.4c-2.5,2.3-5.3,4.5-8.5,5.9 c-2,0.9-5,1.7-6.7,0c-1-0.9-1.2-2.4-1.2-3.6c0-0.8,0.1-1.7,0.3-2.5c0.3-1.4,0.6-1.3,1.9-1.8c3.7-1.4,7.1-3.3,10.5-5.3 c7-4.1,13.8-8.5,20.5-13C52.1,78.4,51.5,79.5,50.8,80.4L50.8,80.4z M42.8,81c-7,4.4-14.1,9.3-21.9,12.3c1.5-4.7,4-9.2,6.9-13.2 c2.8-4,6.2-8,10.1-11c1.7-1.3,8.5-5.2,9-0.6c0.2,2.2-0.9,4.4-1.8,6.4c-0.5,1.2-1.1,2.4-1.7,3.5C43.1,78.9,41.5,80.7,42.8,81z  M72,29.3c-1.1,9.8-4.6,19.4-8.6,28.4c-2,4.6-4.3,9-6.8,13.4c-1.2,2.2-3.9,3.4-5.9,4.8c-2.3,1.6-4.6,3.1-6.9,4.6 c2.2-3.1,4.6-6.6,5.1-10.5c0.6-4.4-2.7-6.5-6.7-5.4c-4.2,1.2-7.7,4.1-10.6,7.3c-3.4,3.8-6.6,8-9,12.4c-1.2,2.2-2.3,4.5-3.2,6.9 c-0.4,1-0.7,2.1-1,3.1c-1.2,0.4-2.4,0.7-3.7,1c-3.7,0.7-9,0.9-11-3.1C1.4,88,2.9,82,4,77.8c1.5-5.5,3.8-10.7,6.1-15.8 c4.3-9.4,9.3-18.7,14.8-27.5c5.2-8.2,11.1-15.9,18.3-22.4c5.6-5,15.1-13.3,22.8-7.9C73.4,9.3,72.9,21.4,72,29.3L72,29.3z"></path></svg>