<svg xmlns="http://www.w3.org/2000/svg" viewBox="0 0 40 16"><polygon points="31.6,2.9 34.9,2.4 34.9,14.2 31.6,14.2 "></polygon><polygon points="36.4,2.9 36.4,14.2 39.7,14.2 39.7,2.4 "></polygon><rect x="27" y="5.5" width="3.3" height="8.7"></rect><path d="M5.3,6.8c-0.4,0-1.4-0.1-1.4-0.9c0-1,1.4-1,1.9-1c1,0,2,0.2,2.9,0.5c0,0,0.5,0.2,0.9,0.3l0,0V3L9.6,3 C8.2,2.5,6.8,2.3,5.3,2.4c-3.7,0-5,2-5,3.8c0,1,0.5,3.4,4.7,3.6c0.4,0,1.3,0.1,1.3,0.9c0,0.7-0.8,1.1-2.1,1.1 c-1.3,0-2.5-0.2-3.7-0.7v2.8c1.4,0.3,2.9,0.5,4.4,0.5c3.6,0,5.2-1.9,5.2-3.8C10.1,8.4,8.3,7,5.3,6.8"></path><path d="M25.1,5.4c-3,0.1-4.6,1.4-4.6,3.9v4.9h3.3v-4c0-1.5,0.2-2.2,2.1-2.2V5.5C25.7,5.4,25.4,5.4,25.1,5.4"></path><path d="M16.2,5.5c-0.4,1.1-1.1,2.1-1.9,3V2.4L11,3v11.2h3.4v-3.5c0.7,1.1,1.2,2.2,1.5,3.5h4.1c-0.6-1.6-1.3-3-2.2-4.5 c1-1.3,1.8-2.7,2.4-4.2L16.2,5.5z"></path><path d="M28.6,4.7c0.3,0,0.6-0.1,0.9-0.3C29.8,4.3,30,4,30.1,3.8c0.1-0.3,0.2-0.6,0.1-0.9c-0.1-0.3-0.2-0.6-0.4-0.8 c-0.2-0.2-0.5-0.4-0.8-0.4c-0.3-0.1-0.6,0-0.9,0.1c-0.3,0.1-0.5,0.3-0.7,0.6C27.1,2.6,27,2.9,27,3.2c0,0.4,0.2,0.8,0.5,1.1 C27.8,4.5,28.2,4.7,28.6,4.7z"></path></svg>