<svg xmlns="http://www.w3.org/2000/svg" viewBox="0 0 150 150"><path class="wdt-star-path-1" d="M125.6,87.2c-46.3,0-60.5,14.2-60.5,60.5c0-46.3-14.2-60.5-60.5-60.5c46.3,0,60.5-14.2,60.5-60.5 C65.1,73,79.3,87.2,125.6,87.2z"></path><path class="wdt-star-path-2" d="M145.3,31.5c-22.3,0-29.1,6.8-29.1,29.1c0-22.3-6.8-29.1-29.1-29.1c22.3,0,29.1-6.8,29.1-29.1 C116.2,24.6,123.1,31.5,145.3,31.5z"></path><path class="wdt-star-path-3" d="M39.9,123.2c-11.1,0-14.5,3.4-14.5,14.5c0-11.1-3.4-14.5-14.5-14.5c11.1,0,14.5-3.4,14.5-14.5 C25.4,119.8,28.8,123.2,39.9,123.2z"></path></svg>