<svg xmlns:xlink="http://www.w3.org/1999/xlink" viewBox="0 0 91.7 100"><path d="M62.2,29.6c-2.2,0-4.1-1.8-4.1-4.1v-4.1c0-6.8-5.5-12.2-12.3-12.2s-12.3,5.5-12.3,12.2v4.1c0,2.2-1.8,4.1-4.1,4.1 s-4.1-1.8-4.1-4.1v-4.1C25.4,10.1,34.6,1,45.8,1s20.4,9.1,20.4,20.4v4.1C66.3,27.7,64.4,29.6,62.2,29.6z"></path><path d="M45.8,62.3c-11.3,0-20.4-9.1-20.4-20.4c0-2.2,1.8-4.1,4.1-4.1s4.1,1.8,4.1,4.1c0,6.8,5.5,12.3,12.3,12.3s12.3-5.5,12.3-12.3 c0-2.2,1.8-4.1,4.1-4.1c2.2,0,4.1,1.8,4.1,4.1C66.3,53.1,57.1,62.3,45.8,62.3z"></path><path d="M66.3,99H25.4C11.9,99,0.9,88,0.9,74.5L5,33.3c0.2-6.6,5.6-11.9,12.2-11.8h57.2c6.8,0,12.3,5.5,12.3,12.3l4.1,40.4 C90.9,87.7,80.1,98.8,66.5,99C66.4,99,66.3,99,66.3,99z M17.3,29.6c-2.2,0-4.1,1.8-4.1,4.1L9.1,74.9c0.2,8.9,7.5,16,16.3,15.9h40.8 c9,0,16.3-7.3,16.3-16.3l-4.1-40.4c0.2-2.3-1.6-4.3-4-4.5c0,0,0,0-0.1,0H17.3z"></path></svg>