<svg xmlns="http://www.w3.org/2000/svg" viewBox="0 0 73.5 100"><path d="M64.2,99h-55c-2.8,0-5.4-1.3-7.2-3.6C0.3,93-0.4,90,0.2,87C4,69.1,19.3,56.1,36.8,56.1c17.4,0,32.8,13,36.5,30.9 c0.6,3-0.1,6-1.8,8.3C69.7,97.7,67.1,99,64.2,99z M36.8,63c-14.4,0-27,10.7-30.1,25.5c-0.2,0.9,0,1.8,0.6,2.5c0.3,0.4,1,1.1,2.1,1.1 h55c1.1,0,1.8-0.7,2.1-1.1c0.5-0.7,0.7-1.6,0.6-2.5C63.8,73.7,51.1,63,36.8,63z"></path><path d="M36.7,50c-13.5,0-24.5-11-24.5-24.5C12.2,12,23.2,1,36.7,1s24.5,11,24.5,24.5S50.3,50,36.7,50L36.7,50z M36.7,7.7 c-9.8,0-17.8,8-17.8,17.8s8,17.8,17.8,17.8s17.8-8,17.8-17.8S46.6,7.7,36.7,7.7z"></path></svg>