<svg xmlns="http://www.w3.org/2000/svg" viewBox="0 0 100 100">
<style type="text/css">
	.wdt-fav-icon-01{fill:#825846;}
</style>
<path class="wdt-fav-icon-01" d="M33.2,73.7c-8.6-4-0.7-6.5,12.2-9.2c13.3-2.8,13-5.4-4.1-10.2c-25.4-7-27.9-9.7-3.7-16.5
	c13.5-3.8,7.9-5.1,8-8.6l1.5-27.4c0-1,0.8-1.8,1.7-1.8c0.9,0,1.7,0.7,1.7,1.7L52,18.7c0.2,8.1,0.5,9.8,8.9,13.2
	c9.2,3.8,5.6,7.3-6.2,9.8c-17.3,3.8-8.8,4.7,10.7,11c19.5,6.3,19,8.6-4.8,15.9c-13.7,4.2-8.2,5.9-8.5,10l-1.4,19.7
	c-0.1,0.9-0.8,1.7-1.7,1.7c-0.9,0-1.6-0.7-1.7-1.7L46.3,86C45.8,78.6,44.1,78.7,33.2,73.7z"/>
</svg>
