<svg xmlns="http://www.w3.org/2000/svg" viewBox="0 0 91.7 100"><path d="M86.7,33.7c0-6.8-5.5-12.3-12.3-12.3h-8.2v0C66.2,10.1,57.1,1,45.8,1s-20.4,9.1-20.4,20.4v0h-8.2c-6.6,0-12,5.2-12.2,11.8 L0.9,74.5C0.9,88,11.9,99,25.4,99h41.1c13.6-0.2,24.4-11.3,24.3-24.9L86.7,33.7z M33.6,21.4c0-6.8,5.5-12.3,12.3-12.3 s12.3,5.5,12.3,12.3v0L33.6,21.4L33.6,21.4z M66.3,90.8H25.4c-8.9,0-16.1-7.1-16.3-15.9l4.1-41.2c0-2.3,1.8-4.1,4.1-4.1h12.2 c0,0,0,0,0,0s0,0,0,0h32.6c0,0,0,0,0,0s0,0,0,0h12.2c0.1,0,0.1,0,0.1,0c2.3,0.2,4.1,2.2,4,4.5l4.1,40.4 C82.6,83.5,75.3,90.8,66.3,90.8z"></path><path d="M83.3,31.9c0.2-2.5-1.8-4.7-4.4-4.9c0,0,0,0-0.1,0h-63c-2.5,0-4.5,2-4.5,4.5L6.8,76.6c0.2,9.7,8.2,17.5,18,17.4h45 c9.9,0,18-8,18-17.9L83.3,31.9z M47.3,62.7c-12.4,0-22.5-10-22.5-22.3c0-2.5,2-4.5,4.5-4.5c2.5,0,4.5,2,4.5,4.5 c0,7.4,6,13.4,13.5,13.4s13.5-6,13.5-13.4c0-2.5,2-4.5,4.5-4.5c2.5,0,4.5,2,4.5,4.5C69.8,52.7,59.8,62.7,47.3,62.7z"></path></svg>