<svg xmlns="http://www.w3.org/2000/svg" viewBox="0 0 40 16"><polygon points="16.6,1.7 14,14.4 17.2,14.4 19.8,1.7 "></polygon><path d="M37.1,1.7h-2.7c-0.3,0-0.6,0.1-0.8,0.3c-0.2,0.2-0.4,0.4-0.5,0.7l-4.8,11.8h3.3l0.7-1.9h4.1l0.4,1.9v0h2.9L37.1,1.7z  M33.2,9.9l1.7-4.8l1,4.8L33.2,9.9z"></path><path d="M28.4,10.2c0-3.4-4.5-3.5-4.5-5c0-0.5,0.4-0.9,1.4-1.1c1.1-0.1,2.2,0.1,3.1,0.6L29,2c-1-0.4-2-0.6-3-0.6 c-3.1,0-5.4,1.7-5.4,4.2c0,1.8,1.6,2.8,2.8,3.5c1.2,0.6,1.7,1,1.7,1.6c0,0.9-1,1.2-1.9,1.2c-1.1,0-2.3-0.3-3.3-0.8l-0.6,2.8 c1.1,0.5,2.3,0.7,3.5,0.7C26.2,14.6,28.4,12.9,28.4,10.2L28.4,10.2z"></path><path d="M11.9,1.7l-3.3,8.6L7.3,3C7.2,2.6,7,2.3,6.8,2c-0.3-0.2-0.6-0.4-1-0.4H0.4L0.3,2c1.1,0.2,2.1,0.6,3.1,1.1 C3.6,3.2,3.8,3.4,4,3.6C4.1,3.8,4.2,4,4.2,4.2l2.5,10.1h3.4l5.2-12.7H11.9z"></path></svg>