<svg xmlns="http://www.w3.org/2000/svg" viewBox="0 0 100 100"><path d="M68.6,97.9C41.9,97.9,17.4,81.8,7,56.4c-0.7-1.7,0.1-3.7,1.9-4.5c1.8-0.7,3.7,0.1,4.5,1.9C23.7,79.3,50,94.3,77.2,90.4 c1.9-0.3,3.6,1,3.9,2.9c0.3,1.9-1,3.6-2.9,3.9C75,97.7,71.8,97.9,68.6,97.9z"></path><path d="M7.1,48.7c-1.6,0-3-1.1-3.3-2.7c-0.1-0.6-0.3-1.2-0.4-1.8c-0.4-1.9,0.8-3.7,2.7-4c1.9-0.4,3.7,0.8,4,2.7 c0.1,0.5,0.2,1.1,0.3,1.6c0.4,1.8-0.7,3.7-2.6,4.1C7.6,48.7,7.4,48.7,7.1,48.7z"></path><path d="M77.9,42.9c-1.5,0-2.9-1-3.3-2.5c-2-7.3-7.8-13.1-15.1-15c-1.8-0.5-2.9-2.4-2.4-4.2c0.5-1.8,2.4-2.9,4.2-2.4 c9.7,2.6,17.3,10.1,19.9,19.8c0.5,1.8-0.6,3.7-2.4,4.2C78.5,42.8,78.2,42.9,77.9,42.9z"></path><path d="M94.5,38.5c-1.5,0-2.9-1-3.3-2.5C87.6,22.7,77.2,12.4,64,8.8c-1.8-0.5-2.9-2.4-2.4-4.2s2.4-2.9,4.2-2.4 c15.6,4.1,27.8,16.4,32,31.9c0.5,1.8-0.6,3.7-2.4,4.2C95,38.4,94.7,38.5,94.5,38.5z"></path><path d="M61,80c-0.2,0-0.4,0-0.6,0c-20.5-3.5-36.7-19.6-40.3-40.1c-0.3-1.9,0.9-3.6,2.8-4c1.9-0.3,3.6,0.9,4,2.8 C30,56.3,43.9,70.2,61.6,73.2c1.9,0.3,3.1,2.1,2.8,3.9C64.1,78.8,62.7,80,61,80z"></path><path d="M23.5,42.7c-1.7,0-3.2-1.3-3.4-3c-0.2-1.9,1.1-3.6,3-3.8c3.6-0.4,6.8-2.4,8.8-5.6c2-3.1,2.5-6.9,1.4-10.4 c-1.2-3.7-4.2-6.5-8-7.7c-3.9-1.2-7.9-0.5-11,1.9c-1.5,1.2-3.6,0.9-4.8-0.6C8.4,12,8.6,9.9,10.1,8.7C14.9,5,21.4,3.8,27.3,5.6 c5.9,1.8,10.6,6.3,12.5,12.1c1.8,5.4,1,11.3-2.1,16.2c-3.1,4.9-8.2,8.1-13.8,8.7C23.7,42.7,23.6,42.7,23.5,42.7z"></path><path d="M5.6,36.9c-1.8,0-3.4-1.5-3.4-3.3C2,27.2,1.7,15.3,10.1,8.7c1.5-1.2,3.6-0.9,4.8,0.6s0.9,3.6-0.6,4.8 C9.1,18.2,8.8,26.2,9,33.4C9.1,35.3,7.6,36.8,5.6,36.9C5.7,36.9,5.6,36.9,5.6,36.9z"></path><path d="M88.9,91.1c-0.7,0-1.5-0.2-2.1-0.7c-1.5-1.1-1.8-3.3-0.6-4.8c2.2-2.9,3-6.6,2.1-10.3c-0.9-3.6-3.3-6.6-6.6-8.2 c-3.5-1.7-7.6-1.5-11.1,0.5c-3.5,2-5.8,5.4-6.2,9.3c-0.2,1.9-1.9,3.2-3.8,3c-1.9-0.2-3.2-1.9-3-3.8c0.6-6,4.2-11.5,9.6-14.5 c5.4-3,11.9-3.3,17.4-0.7c5.2,2.4,8.9,7.1,10.3,12.7c1.4,5.7,0.2,11.5-3.3,16C91,90.6,90,91.1,88.9,91.1z"></path><path d="M77.7,97.2c-1.7,0-3.2-1.3-3.4-3c-0.2-1.9,1.1-3.6,3-3.8c3.5-0.4,6.8-2.2,9.1-4.9c1.2-1.4,3.4-1.6,4.8-0.4s1.6,3.4,0.4,4.8 c-3.4,4.1-8.2,6.7-13.5,7.3C78,97.2,77.8,97.2,77.7,97.2z"></path></svg>