<svg xmlns="http://www.w3.org/2000/svg" viewBox="0 0 70 70"><path d="M43.5,44.9c-2.3,1.3-5.4,2.2-8.5,2.2s-6.2-0.9-8.5-2.2c-1.9,0.8-3.2,1.9-3.2,2.9c0,2.1,4.8,5.9,11.7,5.9s11.7-3.8,11.7-5.9 C46.7,46.8,45.4,45.7,43.5,44.9z"></path><path d="M35,44.3c5.7,0,9.8-3.2,9.8-4.8c0-0.8-1.2-1.9-3.6-2.7c-1.7,1.1-3.9,1.9-6.2,1.9c-2.3,0-4.5-0.7-6.2-1.9 c-2.5,0.8-3.6,1.9-3.6,2.7C25.2,41.2,29.3,44.3,35,44.3z"></path><path d="M35,35.9c3.5,0,6.1-2.1,6.1-3.3c0-0.9-2.4-2.3-6.1-2.3s-6.1,1.4-6.1,2.3C28.9,33.8,31.5,35.9,35,35.9z"></path><path d="M35,21.5c-11.6,0-21,9.4-21,21s9.4,21,21,21s21-9.4,21-21S46.6,21.5,35,21.5z M35,56.5c-7.4,0-14.5-4.2-14.5-8.7 c0-1.8,1.3-3.5,3.5-4.8c-1-1.1-1.6-2.3-1.6-3.5c0-2,1.6-3.7,4.3-4.9c-0.4-0.6-0.6-1.3-0.6-2c0-2.9,3.8-5.1,8.9-5.1s8.9,2.2,8.9,5.1 c0,0.7-0.2,1.3-0.6,2c2.7,1.2,4.3,2.9,4.3,4.9c0,1.2-0.6,2.4-1.6,3.5c2.2,1.3,3.5,2.9,3.5,4.8C49.5,52.3,42.4,56.5,35,56.5z"></path><path d="M35,14.9c-15.2,0-27.6,12.3-27.6,27.5C7.4,57.6,19.8,70,35,70c15.2,0,27.6-12.3,27.6-27.5C62.6,27.3,50.2,15,35,14.9z  M35,66.3c-13.1,0-23.8-10.7-23.8-23.8S21.9,18.7,35,18.7s23.8,10.7,23.8,23.8S48.1,66.3,35,66.3z"></path><path d="M34.8,12.1H35c4.7,0,9.1,1.1,13.1,2.9c0.9-2.9,0.3-5.6,0.3-5.7c-0.1-0.4-0.4-0.8-0.8-1c-0.2-0.1-6-2.6-10.5,1.1 C36,10.3,35.3,11.2,34.8,12.1z"></path><path d="M31.6,12.3c0.4-1,0.8-1.9,1.5-2.8c0,0-0.1-0.1-0.1-0.1c-4.5-3.7-10.3-1.2-10.5-1.1c-0.4,0.2-0.7,0.5-0.8,1 c0,0.2-0.6,2.9,0.3,5.7C24.9,13.7,28.2,12.7,31.6,12.3z"></path><path d="M35,7.5c0.1-0.1,0.1-0.1,0.2-0.2c1.4-1.1,3-1.9,4.8-2.3c-1.6-3.1-4.2-4.7-4.3-4.7c-0.4-0.3-1-0.3-1.5,0 c-0.1,0.1-2.7,1.6-4.3,4.7c1.8,0.4,3.4,1.2,4.8,2.3C34.9,7.3,34.9,7.4,35,7.5z"></path></svg>