<svg xmlns="http://www.w3.org/2000/svg" viewBox="0 0 70 70"><path d="M9.3,18.3c-1.2,0-2.1,0.9-2.1,2.1v29.2c0,1.2,0.9,2.1,2.1,2.1s2.1-0.9,2.1-2.1V20.4C11.4,19.3,10.5,18.3,9.3,18.3z"></path><path d="M2.4,23.9c-1.2,0-2.1,0.9-2.1,2.1V44c0,1.2,0.9,2.1,2.1,2.1s2.1-0.9,2.1-2.1V26C4.4,24.8,3.5,23.9,2.4,23.9z"></path><path d="M14.2,30.8v8.3H19c-1.3-2.5-2.1-5.3-2.1-8.3H14.2z"></path><path d="M60.7,18.3c-1.2,0-2.1,0.9-2.1,2.1v29.2c0,1.2,0.9,2.1,2.1,2.1c1.2,0,2.1-0.9,2.1-2.1V20.4C62.8,19.3,61.8,18.3,60.7,18.3z"></path><path d="M67.6,23.9c-1.2,0-2.1,0.9-2.1,2.1V44c0,1.2,0.9,2.1,2.1,2.1c1.2,0,2.1-0.9,2.1-2.1V26C69.7,24.8,68.8,23.9,67.6,23.9z"></path><path d="M51,39.2h4.9v-8.3h-2.8C53.1,33.9,52.3,36.7,51,39.2z"></path><path d="M39.5,20C39.5,20,39.4,20,39.5,20c-1.5,0-3,0.3-4.5,1c-1.4-0.7-2.9-1-4.4-1c-5.9,0-10.7,4.7-10.8,10.8c0,1,0.1,1.9,0.2,2.8 h6l5.1-7.7c0.3-0.5,0.9-0.7,1.4-0.6c0.6,0.1,1,0.6,1.1,1.1l1.9,11.2l2.4-7.2c0.2-0.5,0.6-0.9,1.1-0.9c0.5-0.1,1,0.2,1.3,0.6l2.4,3.5 H50c0.2-0.9,0.3-1.9,0.2-2.8C50.1,24.7,45.4,20,39.5,20z"></path><path d="M40.8,35.8L39.6,34l-3.3,9.8c-0.2,0.6-0.7,0.9-1.3,0.9c0,0-0.1,0-0.1,0c-0.6-0.1-1.2-0.5-1.3-1.2l-2.2-13.2l-3.6,5.4 c-0.3,0.4-0.7,0.6-1.2,0.6h-5.9c3.3,8.1,13.1,13.2,13.6,13.5C34.6,50,34.8,50,35,50s0.4-0.1,0.6-0.2c0.5-0.3,10.3-5.4,13.6-13.5 h-7.3C41.5,36.4,41,36.2,40.8,35.8z"></path></svg>