<svg xmlns="http://www.w3.org/2000/svg" viewBox="0 0 70 70"><path d="M48.8,4.5c-5.2,0-10,1.8-13.8,5.2c-3.8-3.4-8.7-5.2-13.8-5.2c-11.6,0-21,9.4-21,21c0,21.7,24.8,35.7,32.3,39.5 c0.8,0.4,1.6,0.6,2.5,0.6s1.7-0.2,2.5-0.6c7.6-3.8,32.3-17.9,32.3-39.5C69.8,13.9,60.4,4.5,48.8,4.5z M50.9,41.4 c0.1,1.7-0.5,3.4-1.6,4.7c-0.9,1-2.1,1.8-3.3,2.1c-0.6,2.8-3.1,4.9-6.1,4.9c-2,0-3.7-0.9-4.8-2.4c-1.1,1.4-2.9,2.4-4.8,2.4 c-3,0-5.5-2.1-6.1-4.9c-1.3-0.3-2.4-1.1-3.3-2.1c-1.1-1.3-1.7-3-1.6-4.7c-2.2-1.3-3.6-3.7-3.6-6.4c0-2.7,1.4-5.1,3.6-6.4 c-0.1-1.7,0.5-3.4,1.6-4.7c0.9-1,2.1-1.8,3.4-2.1c0.6-2.8,3.1-4.9,6.1-4.9c2,0,3.7,0.9,4.8,2.4c1.1-1.4,2.9-2.4,4.8-2.4 c3,0,5.5,2.1,6.1,4.9c1.3,0.3,2.5,1.1,3.4,2.1c1.1,1.3,1.7,3,1.6,4.7c2.2,1.3,3.6,3.7,3.6,6.4C54.5,37.6,53.1,40.1,50.9,41.4z  M62.6,22.4c-0.7,0.2-1.5-0.2-1.8-0.9c-1.7-5.2-6.5-8.7-12-8.7c-0.8,0-1.4-0.6-1.4-1.4s0.6-1.4,1.4-1.4c6.7,0,12.6,4.3,14.6,10.6 C63.7,21.4,63.3,22.2,62.6,22.4z"></path><path d="M30.2,19.7c-1.4,0-2.5,0.8-3.1,2c1.2,0.2,2.4,0.7,3.3,1.5c0.6,0.5,0.7,1.4,0.2,2c-0.5,0.6-1.4,0.6-2,0.2 c-1.7-1.4-4.3-1.2-5.7,0.4c-1.4,1.7-1.2,4.3,0.5,5.7c0.6,0.5,0.7,1.4,0.2,2c-0.5,0.6-1.4,0.7-2,0.2c-0.7-0.6-1.2-1.3-1.6-2 c-1,0.9-1.6,2.1-1.6,3.5c0,1.9,1.1,3.6,2.9,4.3c0.6,0.3,1,0.9,0.8,1.6c-0.3,1.2,0.1,2.5,0.9,3.4c1.4,1.7,4,1.9,5.7,0.4 c0.6-0.5,1.5-0.4,2,0.2c0.5,0.6,0.4,1.5-0.2,2c-1,0.8-2.1,1.3-3.3,1.5c0.5,1.2,1.7,2,3.1,2c1.9,0,3.4-1.5,3.4-3.4V23.1 C33.6,21.2,32.1,19.7,30.2,19.7z M26.6,42.3c-0.8,0-1.4-0.6-1.4-1.4s0.6-1.4,1.4-1.4c0.5,0,1-0.4,1-1c0-0.8,0.6-1.4,1.4-1.4 c0.8,0,1.4,0.6,1.4,1.4C30.4,40.6,28.7,42.3,26.6,42.3z M29,32.2c-2.1,0-3.8-1.7-3.8-3.8c0-0.8,0.6-1.4,1.4-1.4s1.4,0.6,1.4,1.4 c0,0.5,0.4,1,1,1c0.8,0,1.4,0.6,1.4,1.4S29.8,32.2,29,32.2z"></path><path d="M48.5,33.6c-0.6,0.5-1.5,0.4-2-0.2c-0.5-0.6-0.4-1.5,0.2-2c1.7-1.4,1.9-4,0.5-5.7c-1.4-1.7-4-1.9-5.7-0.4 c-0.6,0.5-1.5,0.4-2-0.2c-0.5-0.6-0.4-1.5,0.2-2c0.9-0.8,2.1-1.3,3.3-1.5c-0.6-1.2-1.7-2-3.1-2c-1.9,0-3.4,1.5-3.4,3.4v23.8 c0,1.9,1.5,3.4,3.4,3.4c1.4,0,2.6-0.8,3.1-2c-1.2-0.2-2.4-0.7-3.3-1.5c-0.6-0.5-0.7-1.4-0.2-2c0.5-0.6,1.4-0.7,2-0.2 c1.7,1.4,4.3,1.2,5.7-0.4c0.8-0.9,1.1-2.2,0.9-3.4c-0.1-0.6,0.2-1.3,0.8-1.6c1.7-0.7,2.9-2.4,2.9-4.3c0-1.4-0.6-2.6-1.6-3.5 C49.7,32.3,49.2,33,48.5,33.6z M43.4,42.3c-2.1,0-3.8-1.7-3.8-3.8c0-0.8,0.6-1.4,1.4-1.4s1.4,0.6,1.4,1.4c0,0.5,0.4,1,1,1 c0.8,0,1.4,0.6,1.4,1.4S44.1,42.3,43.4,42.3z M41,32.2c-0.8,0-1.4-0.6-1.4-1.4s0.6-1.4,1.4-1.4c0.5,0,1-0.4,1-1 c0-0.8,0.6-1.4,1.4-1.4s1.4,0.6,1.4,1.4C44.7,30.5,43.1,32.2,41,32.2z"></path></svg>