<svg xmlns="http://www.w3.org/2000/svg" viewBox="0 0 59.8 23.1"><path d="M0,10.2H12a3.5,3.5,0,0,0,2.5-1c2.3-2.5,4.7-4.8,7.2-7.2.2-.3.5-.9,1-.5a3.1,3.1,0,0,1,1.5,1.7c.2.3-.3.5-.5.8L18.3,9.3c-.2.3-.6.5-.7,1h3.7c.4,0,.7-.4.9-.7,2.5-2.5,5.1-4.9,7.5-7.4.7-.7,1.2-.7,1.7,0l.6.5c.5.4.4.8-.1,1.2L26.2,9.6c-.1.2-.3.3-.4.6,1.9-.1,3.9.8,5.6-1.2S36.9,3.3,39.7.5c.5-.6.9-.7,1.6-.1s1.3,1.3.5,2.1l-8,8.2c-.7.7-.7,1.1,0,1.8,2.7,2.6,5.3,5.3,7.9,7.9.6.6.6.9,0,1.5s-1.2,1.6-2.7,0l-8-8.1a2.2,2.2,0,0,0-1.9-.8H26c0,.6.3.7.5.9l5.2,5.2c.6.5.7.9.1,1.5s-1,1.6-2.5,0l-6.8-6.7a2.1,2.1,0,0,0-1.9-.8h-3c.1.5.5.7.7,1l5.4,5.3q.8.6,0,1.2c-1.7,1.6-1.3,1.5-2.8,0s-4.5-4.5-6.8-6.8a2.3,2.3,0,0,0-1.8-.8H0"></path><path d="M38.1,11.6a1.3,1.3,0,0,1,.5-.7L46,3.1c.3-.3.6-.6,1.1-.2,2.6,1.9,5.5,3.4,8.2,5.2s2.6,1.8,4,2.6.6.9,0,1.2l-4.9,3c-2.4,1.6-4.9,3-7.3,4.8-.5.4-.9.3-1.3-.2l-7.3-7.4-.4-.5Z"></path></svg>