<svg xmlns="http://www.w3.org/2000/svg" viewBox="0 0 70 70"><path d="M43.2,46.7v-0.5C40.7,47.4,37.9,48,35,48s-5.7-0.7-8.2-1.9v0.5c0,4.5,3.7,8.2,8.2,8.2S43.2,51.2,43.2,46.7z"></path><path d="M22.6,46.7v-1.3c-3.1,0.7-6.2,1.6-9.2,2.8c-4.8,2-8,6.7-8,12V70h11V59.7h4.1V70h12.4V58.8C27.1,57.8,22.6,52.8,22.6,46.7z"></path><path d="M56.5,48.2c-3-1.2-6.1-2.2-9.2-2.8v1.3c0,6.1-4.5,11.2-10.3,12.2V70h12.4V59.7h4.1V70h11v-9.8 C64.5,54.9,61.4,50.1,56.5,48.2z"></path><path d="M35,43.9c8.3,0,15.1-6.8,15.1-15.1V22c0-8.3-6.8-15.1-15.1-15.1S19.9,13.6,19.9,22v6.9C19.9,37.1,26.7,43.9,35,43.9z  M37.1,35h-4.1v-4.1h4.1V35z M35,15.8c3.4,0,6.2,2.8,6.2,6.2c0,2.6-1.7,5-4.1,5.8v1h-4.1v-1.6c0-1.6,1-2.9,2.6-3.3 c0.9-0.2,1.5-1.1,1.5-2c0-1.1-0.9-2.1-2.1-2.1s-2.1,0.9-2.1,2.1h-4.1C28.8,18.6,31.6,15.8,35,15.8z"></path><rect x="53.5" y="15.1" width="4.1" height="4.1"></rect><path d="M55.6,4.1c1.1,0,2.1,0.9,2.1,2.1c0,0.9-0.6,1.7-1.5,2c-1.6,0.4-2.6,1.8-2.6,3.3V13h4.1v-1c2.4-0.9,4.1-3.2,4.1-5.8 C61.8,2.8,59,0,55.6,0c-3.4,0-6.2,2.8-6.2,6.2h4.1C53.5,5,54.5,4.1,55.6,4.1z"></path><rect x="11" y="15.1" width="4.1" height="4.1"></rect><path d="M13,4.1c1.1,0,2.1,0.9,2.1,2.1c0,0.9-0.6,1.7-1.5,2C12,8.6,11,9.9,11,11.5V13h4.1v-1c2.4-0.9,4.1-3.2,4.1-5.8 C19.2,2.8,16.4,0,13,0S6.9,2.8,6.9,6.2H11C11,5,11.9,4.1,13,4.1z"></path></svg>