<svg xmlns="http://www.w3.org/2000/svg" viewBox="0 0 100 100"><path d="M84.5,7.8H51.7c-1.9,0-3.4-1.6-3.4-3.5s1.5-3.5,3.4-3.5h32.8c1.9,0,3.4,1.6,3.4,3.5S86.4,7.8,84.5,7.8z"></path><path d="M41.4,7.8h-1.7c-1.9,0-3.4-1.6-3.4-3.5s1.5-3.5,3.4-3.5h1.7c1.9,0,3.4,1.6,3.4,3.5S43.3,7.8,41.4,7.8z"></path><path d="M29.3,7.8H15.5c-1.9,0-3.4-1.6-3.4-3.5s1.5-3.5,3.4-3.5h13.8c1.9,0,3.4,1.6,3.4,3.5S31.2,7.8,29.3,7.8z"></path><path d="M77.6,74.8c-1.9,0-3.4-1.6-3.4-3.5c0-4.2-2.5-8-6.3-9.7c-1.7-0.8-2.6-2.8-1.8-4.6c0.7-1.8,2.8-2.6,4.5-1.8 C76.9,57.9,81,64.3,81,71.3C81,73.3,79.5,74.8,77.6,74.8z"></path><path d="M77.6,99.2c-1.9,0-3.4-1.6-3.4-3.5V71.3c0-1.9,1.5-3.5,3.4-3.5s3.4,1.6,3.4,3.5v24.4C81,97.7,79.5,99.2,77.6,99.2z"></path><path d="M69.2,61.9c-0.5,0-0.9-0.1-1.4-0.3L29.4,44.8c-1.7-0.8-2.6-2.8-1.8-4.6c0.7-1.8,2.8-2.6,4.5-1.8l38.4,16.8 c1.7,0.8,2.6,2.8,1.8,4.6C71.8,61.1,70.6,61.9,69.2,61.9z"></path><path d="M22.4,74.8c-1.9,0-3.4-1.6-3.4-3.5c0-7,4.1-13.4,10.4-16.2c1.7-0.8,3.8,0.1,4.5,1.8c0.7,1.8-0.1,3.9-1.8,4.6 c-3.8,1.7-6.3,5.5-6.3,9.7C25.9,73.3,24.3,74.8,22.4,74.8z"></path><path d="M22.4,99.2c-1.9,0-3.4-1.6-3.4-3.5V71.3c0-1.9,1.5-3.5,3.4-3.5s3.4,1.6,3.4,3.5v24.4C25.9,97.7,24.3,99.2,22.4,99.2z"></path><path d="M30.8,61.9c-1.3,0-2.6-0.8-3.2-2.1c-0.7-1.8,0.1-3.9,1.8-4.6l38.4-16.8c1.7-0.8,3.8,0.1,4.5,1.8c0.7,1.8-0.1,3.9-1.8,4.6 L32.1,61.6C31.7,61.8,31.2,61.9,30.8,61.9z"></path><path d="M30.8,45.1c-0.5,0-0.9-0.1-1.4-0.3C23.1,42.1,19,35.7,19,28.7c0-1.9,1.5-3.5,3.4-3.5c1.9,0,3.4,1.6,3.4,3.5 c0,4.2,2.5,8,6.3,9.7c1.7,0.8,2.6,2.8,1.8,4.6C33.4,44.3,32.1,45.1,30.8,45.1z"></path><path d="M22.4,32.2c-1.9,0-3.4-1.6-3.4-3.5V4.3c0-1.9,1.5-3.5,3.4-3.5s3.4,1.6,3.4,3.5v24.4C25.9,30.6,24.3,32.2,22.4,32.2z"></path><path d="M69.2,45.1c-1.3,0-2.6-0.8-3.2-2.1c-0.7-1.8,0.1-3.9,1.8-4.6c3.8-1.7,6.3-5.5,6.3-9.7c0-1.9,1.5-3.5,3.4-3.5 s3.4,1.6,3.4,3.5c0,7-4.1,13.4-10.4,16.2C70.1,45,69.7,45.1,69.2,45.1z"></path><path d="M77.6,32.2c-1.9,0-3.4-1.6-3.4-3.5V4.3c0-1.9,1.5-3.5,3.4-3.5S81,2.3,81,4.3v24.4C81,30.6,79.5,32.2,77.6,32.2z"></path><path d="M84.5,99.2h-69c-1.9,0-3.4-1.6-3.4-3.5c0-1.9,1.5-3.5,3.4-3.5h69c1.9,0,3.4,1.6,3.4,3.5C87.9,97.7,86.4,99.2,84.5,99.2z"></path></svg>