<svg xmlns="http://www.w3.org/2000/svg" viewBox="0 0 96.6 150"><path d="M60.1,51c-1.6,0-2.8,1.3-2.8,2.8s1.3,2.8,2.8,2.8c1.6,0,2.8-1.3,2.8-2.8S61.6,51,60.1,51z"></path><circle cx="36.6" cy="53.9" r="2.8"></circle><path d="M44.3,60.8c1.3,0.4,2.7,0.6,4,0.6c1.3,0,2.7-0.2,4-0.6c0.4-0.1,0.8-0.4,1-0.8c0.2-0.4,0.3-0.8,0.2-1.3 c-0.3-0.9-1.2-1.4-2.1-1.2c-2,0.6-4.1,0.6-6.1,0c-0.9-0.3-1.8,0.3-2.1,1.2c-0.1,0.4-0.1,0.9,0.1,1.3S43.9,60.7,44.3,60.8z"></path><path d="M96.7,147.4L96.7,147.4c-2.9-13.2-8-24.4-15.2-33.1c-5.2-6.2-11.3-11.1-18.2-14.5v-3.1c0-2.6-2.1-4.8-4.8-4.8h-1.1v-2.7 c7.4-2.8,13.4-8.7,16.2-13.3c0.6-1,1.2-2.3,1.8-3.8c3.6-0.3,6.9-3,8.3-7c1.8-4.9,0.2-10.1-3.6-12.4c2-3.7,2.6-7.8,1.9-12.3 c2.7-9.6,1-19.1-4.8-26.8C70.6,5.2,60.1,0.3,48.3,0.3S26,5.2,19.6,13.8c-5.8,7.7-7.5,17.2-4.8,26.8c-0.7,4.5-0.1,8.6,1.9,12.3 c-3.8,2.2-5.4,7.5-3.6,12.4c1.4,3.9,4.7,6.7,8.3,7c0.6,1.5,1.2,2.7,1.8,3.8c2.8,4.6,8.8,10.4,16.2,13.3V92h-1.1 c-2.6,0-4.8,2.1-4.8,4.8v3.1c-6.9,3.4-13.1,8.3-18.2,14.5C8,123,2.8,134.2-0.1,147.4c-0.1,0.6,0,1.2,0.4,1.6 c0.4,0.5,0.9,0.7,1.5,0.7h93c0.6,0,1.1-0.3,1.5-0.7C96.7,148.6,96.8,148,96.7,147.4z M20,67.9c-1.4-0.7-2.6-2.2-3.3-3.9 c-1-2.7-0.5-5.6,1.2-7.2C18.4,60.9,19.1,64.6,20,67.9z M78.8,56.8c1.6,1.6,2.2,4.5,1.2,7.2c-0.6,1.8-1.9,3.2-3.3,3.9 C77.5,64.6,78.3,60.9,78.8,56.8z M48.3,31.5c15.8,0,25.4,6.4,28.8,9.1l-2.7,2.8c-0.9,0.9-2.4,1-3.4,0.2c-4.1-3.4-11.4-7.4-22.6-7.4 s-18.4,4-22.6,7.4c-1,0.8-2.5,0.8-3.4-0.2l-2.7-2.8C22.9,37.8,32.5,31.5,48.3,31.5z M75.2,47.3c0.7-0.3,1.3-0.8,1.9-1.3l1.2-1.2 c-0.1,2.1-0.6,4.1-1.5,5.9C76.1,49.7,75.5,48.6,75.2,47.3z M78.7,36.9c-4.3-3.3-14.4-9.3-30.4-9.3c-16,0-26.1,6-30.4,9.3 c-1.4-7.5,0.3-14.9,4.8-20.8c5.7-7.6,15.1-12,25.7-12s19.9,4.4,25.7,12C78.5,22,80.1,29.4,78.7,36.9z M19.6,46 c0.5,0.5,1.2,1,1.9,1.3c-0.4,1.3-0.9,2.4-1.6,3.4c-0.9-1.8-1.4-3.8-1.5-5.9L19.6,46z M25.3,47.8c1-0.2,2-0.7,2.9-1.3 c3.7-3,10.1-6.5,20.2-6.5c10,0,16.5,3.5,20.2,6.5c0.8,0.7,1.8,1.1,2.9,1.3c0.7,2.7,1.9,5,3.8,6.8c-0.9,8.4-2.8,15.7-5,19.4 c-3.1,5.1-11.7,13.2-21.8,13.2c-10.2,0-18.8-8.1-21.8-13.2c-2.2-3.7-4.1-11-5-19.4C23.4,52.7,24.6,50.4,25.3,47.8z M92.4,145.9H91 c-2.7-10.7-6.9-19.9-12.5-27.2c-5-6.5-11.3-11.7-18.6-15.3c0.4-0.1,0.8-0.2,1.2-0.3C72,108.3,86.1,119.9,92.4,145.9z M72,122.2 c-1.1,0-1.9,0.9-1.9,1.9v21.8H50.2v-34c1.6-2.7,3.3-4.8,5.4-6.3c15.7,6.7,26.3,20.3,31.4,40.3H73.9v-21.8 C73.9,123,73.1,122.2,72,122.2z M59.4,99.5c-3,0.9-5.7,2.5-8.1,4.8l1.1-7.7c0.1-0.5,0.5-0.8,0.9-0.8h5.1c0.5,0,0.9,0.4,0.9,0.9V99.5 z M43.3,92h-0.1v-1.5c3.4,0.8,6.8,0.8,10.2,0V92h-0.1c-2.4,0-4.4,1.8-4.7,4.1l-0.3,1.8l-0.3-1.8C47.7,93.7,45.7,92,43.3,92z  M38.2,95.8h5.1c0.5,0,0.9,0.3,0.9,0.8l1.1,7.7c-2.4-2.3-5.1-3.9-8.1-4.8l0-2.8C37.3,96.2,37.7,95.8,38.2,95.8z M24.6,122.2 c-1.1,0-1.9,0.9-1.9,1.9v21.8H9.6c5.2-20,15.7-33.6,31.4-40.3c2,1.5,3.8,3.6,5.4,6.3l0,34H26.5v-21.8 C26.5,123,25.7,122.2,24.6,122.2z M36.7,103.4c-7.3,3.6-13.5,8.8-18.6,15.3c-5.6,7.3-9.8,16.5-12.5,27.2H4.2 c6.3-26,20.4-37.6,31.3-42.8C35.9,103.2,36.3,103.3,36.7,103.4z"></path><path d="M48.3,8.1c-5.8,0-10.5,4-10.5,8.9S42.5,26,48.3,26s10.5-4,10.5-8.9S54.1,8.1,48.3,8.1z M55.5,17.1c0,3.1-3.2,5.6-7.2,5.6 s-7.2-2.5-7.2-5.6s3.2-5.6,7.2-5.6S55.5,14,55.5,17.1z"></path><path d="M33.3,48.4l7.3,1.9c0.1,0,0.3,0.1,0.4,0.1c0.8,0,1.4-0.5,1.6-1.2c0.1-0.4,0.1-0.9-0.2-1.3c-0.2-0.4-0.6-0.7-1-0.8l-7.3-1.9 c-0.4-0.1-0.9-0.1-1.3,0.2c-0.4,0.2-0.7,0.6-0.8,1C31.8,47.2,32.4,48.1,33.3,48.4z"></path><path d="M55.7,50.3c0.1,0,0.3,0,0.4-0.1l7.3-1.9c0.4-0.1,0.8-0.4,1-0.8c0.2-0.4,0.3-0.8,0.2-1.3c-0.1-0.4-0.4-0.8-0.8-1 c-0.4-0.2-0.8-0.3-1.3-0.2l-7.3,1.9c-0.9,0.2-1.4,1.2-1.2,2C54.3,49.8,54.9,50.3,55.7,50.3z"></path></svg>