<svg xmlns="http://www.w3.org/2000/svg" viewBox="0 0 150 150"><path d="M75,116.1c-22.7,0-41.1-18.5-41.1-41.1H28c0,25.9,21.1,47,47,47c25.9,0,47-21.1,47-47h-5.9C116.1,97.7,97.7,116.1,75,116.1z "></path><path d="M75,1C34.2,1,1,34.2,1,75s33.2,74,74,74s74-33.2,74-74S115.8,1,75,1z M75,143.1c-37.6,0-68.1-30.6-68.1-68.1 S37.4,6.9,75,6.9s68.1,30.6,68.1,68.1S112.6,143.1,75,143.1z"></path><path d="M60.2,55.8c7.2,7.2-3.6,17.9-10.7,10.7C42.3,59.4,53.1,48.6,60.2,55.8"></path><path d="M100.8,55.8c7.2,7.2-3.6,17.9-10.7,10.7C82.9,59.4,93.6,48.6,100.8,55.8"></path></svg>