<svg xmlns="http://www.w3.org/2000/svg" viewBox="0 0 502 81.5">
<circle cx="251" cy="40.8" r="7.5"/>
<path d="M212.3,39l28.6,1.8l-28.6,1.8c-1,0.1-1.8-0.7-1.9-1.7C210.3,39.8,211.2,38.9,212.3,39L212.3,39z"/>
<path d="M224.9,12.1l18.9,21.5l-21.5-18.9c-0.7-0.7-0.8-1.8-0.2-2.5C222.9,11.3,224.2,11.3,224.9,12.1L224.9,12.1z"/>
<path d="M252.8,2.1L251,30.6l-1.8-28.6c-0.1-1,0.7-1.8,1.7-1.9C252,0.1,252.9,1,252.8,2.1L252.8,2.1z"/>
<path d="M279.6,14.7l-21.5,18.9l18.9-21.5c0.7-0.7,1.8-0.8,2.5-0.2C280.4,12.7,280.4,14,279.6,14.7L279.6,14.7z"/>
<path d="M289.7,42.6l-28.6-1.8l28.6-1.8c1-0.1,1.8,0.7,1.9,1.7C291.7,41.7,290.8,42.6,289.7,42.6L289.7,42.6z"/>
<path d="M277.1,69.4l-18.9-21.5l21.5,18.9c0.7,0.7,0.8,1.8,0.2,2.5C279.1,70.2,277.8,70.2,277.1,69.4L277.1,69.4z"/>
<path d="M249.2,79.5l1.8-28.6l1.8,28.6c0.1,1-0.7,1.8-1.7,1.9C250,81.5,249.1,80.5,249.2,79.5L249.2,79.5z"/>
<path d="M222.4,66.9l21.5-18.9l-18.9,21.5c-0.7,0.7-1.8,0.8-2.5,0.2C221.6,68.9,221.6,67.6,222.4,66.9L222.4,66.9z"/>
<path d="M214.7,54.2l27-9.5l-25.6,12.8c-0.9,0.4-2,0.1-2.4-0.8C213.2,55.8,213.7,54.6,214.7,54.2L214.7,54.2L214.7,54.2z"/>
<path d="M215.8,24.6L241.6,37l-27.1-9c-0.9-0.3-1.5-1.3-1.1-2.3C213.6,24.6,214.8,24.1,215.8,24.6L215.8,24.6L215.8,24.6z"/>
<path d="M237.5,4.5l9.5,27L234.2,5.9c-0.4-0.9-0.1-2,0.8-2.4C236,2.9,237.2,3.4,237.5,4.5L237.5,4.5z"/>
<path d="M267.2,5.6l-12.4,25.8l9-27.1c0.3-0.9,1.3-1.5,2.3-1.1C267.1,3.4,267.6,4.6,267.2,5.6L267.2,5.6L267.2,5.6z"/>
<path d="M287.3,27.3l-27,9.5L285.9,24c0.9-0.4,2-0.1,2.4,0.8C288.8,25.8,288.3,27,287.3,27.3L287.3,27.3L287.3,27.3z"/>
<path d="M286.2,56.9l-25.8-12.4l27.1,9c0.9,0.3,1.5,1.3,1.1,2.3C288.4,56.9,287.2,57.4,286.2,56.9L286.2,56.9L286.2,56.9z"/>
<path d="M264.5,77.1l-9.5-27l12.8,25.6c0.4,0.9,0.1,2-0.8,2.4C266,78.6,264.8,78.1,264.5,77.1L264.5,77.1z"/>
<path d="M234.8,76l12.4-25.8l-9,27.1c-0.3,0.9-1.3,1.5-2.3,1.1C234.9,78.1,234.4,76.9,234.8,76L234.8,76L234.8,76z"/>
<path d="M196.4,35.6c2.9,10.2-3.1,20.9-13.4,23.8c-5.1,1.4-10.4,0.7-14.7-1.8c1.4-0.1,2.7-0.3,4.1-0.7c10.2-2.9,16.2-13.5,13.4-23.8
	c-1.4-5.1-4.8-9.2-9.1-11.6C185.5,21,193.9,26.7,196.4,35.6L196.4,35.6z"/>
<circle cx="164.1" cy="40.8" r="7.1"/>
<circle cx="145.2" cy="40.8" r="6.4"/>
<circle cx="127.6" cy="40.8" r="5.8"/>
<circle cx="111.3" cy="40.8" r="5.2"/>
<circle cx="95.5" cy="40.8" r="5.2"/>
<ellipse cx="4.3" cy="40.8" rx="3.3" ry="3.2"/>
<path d="M10.9,40.8L82.6,39c1,0,1.8,0.8,1.8,1.8s-0.8,1.8-1.8,1.8C82.7,42.6,10.9,40.8,10.9,40.8L10.9,40.8L10.9,40.8z"/>
<path d="M305.6,35.6c-2.9,10.2,3.1,20.9,13.4,23.8c5.1,1.4,10.4,0.7,14.7-1.8c-1.4-0.1-2.7-0.3-4.1-0.7
	c-10.2-2.9-16.2-13.5-13.4-23.8c1.4-5.1,4.8-9.2,9.1-11.6C316.5,21,308.1,26.7,305.6,35.6L305.6,35.6z"/>
<circle cx="337.9" cy="40.8" r="7.1"/>
<circle cx="356.8" cy="40.8" r="6.4"/>
<circle cx="374.4" cy="40.8" r="5.8"/>
<circle cx="390.7" cy="40.8" r="5.2"/>
<circle cx="406.5" cy="40.8" r="5.2"/>
<ellipse cx="497.7" cy="40.8" rx="3.3" ry="3.2"/>
<path d="M491.1,40.8l-71.8,1.8c-1,0-1.8-0.8-1.8-1.8c0-1,0.8-1.8,1.8-1.8C419.3,39,491.1,40.8,491.1,40.8L491.1,40.8L491.1,40.8z"/>
</svg>