<svg xmlns="http://www.w3.org/2000/svg" viewBox="0 0 136.6 150"><path d="M68.3,43.3c1.5,0,2.7-1.2,2.7-2.7V28.9c0-1.5-1.2-2.7-2.7-2.7s-2.7,1.2-2.7,2.7v11.7C65.6,42.1,66.8,43.3,68.3,43.3z"></path><path d="M45.4,47.4c0.5,0.9,1.4,1.4,2.3,1.4c0.5,0,0.9-0.1,1.3-0.4c1.3-0.7,1.7-2.4,1-3.7l-5.9-10.2c-0.4-0.6-0.9-1.1-1.6-1.3 c-0.7-0.2-1.4-0.1-2,0.3c-1.3,0.7-1.7,2.4-1,3.7L45.4,47.4z"></path><path d="M34.1,58.7L24,52.9c-1.3-0.7-2.9-0.3-3.7,1c-0.4,0.6-0.5,1.4-0.3,2c0.2,0.7,0.6,1.3,1.3,1.7l10.2,5.9 c0.4,0.2,0.9,0.4,1.3,0.4c0.9,0,1.8-0.5,2.3-1.4c0.4-0.6,0.5-1.4,0.3-2.1C35.2,59.7,34.7,59.1,34.1,58.7z"></path><path d="M30,81.1c0-1.5-1.2-2.7-2.7-2.7H15.5c-1.5,0-2.7,1.2-2.7,2.7c0,1.5,1.2,2.7,2.7,2.7h11.7C28.8,83.8,30,82.6,30,81.1z"></path><path d="M31.4,99.8l-10.2,5.9c-1.3,0.7-1.7,2.4-1,3.7c0.5,0.9,1.4,1.3,2.4,1.3c0.5,0,0.9-0.1,1.3-0.4l10.2-5.9 c1.3-0.7,1.7-2.4,1-3.7C34.4,99.5,32.7,99,31.4,99.8z"></path><path d="M49.1,114.8c-0.6-0.4-1.4-0.5-2-0.3c-0.7,0.2-1.3,0.6-1.6,1.3l-5.9,10.2c-0.4,0.6-0.5,1.4-0.3,2c0.2,0.7,0.6,1.3,1.3,1.6 c0.4,0.2,0.9,0.4,1.3,0.4c0.2,0,0.5,0,0.7-0.1c0.7-0.2,1.3-0.6,1.6-1.3l5.9-10.2C50.9,117.2,50.4,115.5,49.1,114.8z"></path><path d="M68.3,119.9c-1.5,0-2.7,1.2-2.7,2.7v11.7c0,1.5,1.2,2.7,2.7,2.7s2.7-1.2,2.7-2.7v-11.7C71,121.1,69.8,119.9,68.3,119.9z"></path><path d="M91.2,115.8L91.2,115.8c-0.4-0.6-0.9-1.1-1.6-1.3c-0.7-0.2-1.4-0.1-2.1,0.3c-1.3,0.7-1.7,2.4-1,3.7l5.9,10.2 c0.4,0.6,0.9,1.1,1.6,1.3c0.2,0.1,0.5,0.1,0.7,0.1c0.5,0,0.9-0.1,1.4-0.4c1.3-0.7,1.7-2.4,1-3.7L91.2,115.8z"></path><path d="M115.3,105.6l-10.2-5.9c-1.3-0.7-2.9-0.3-3.7,1c-0.4,0.6-0.5,1.4-0.3,2c0.2,0.7,0.6,1.3,1.3,1.6l10.2,5.9 c0.4,0.2,0.9,0.4,1.4,0.4c0.2,0,0.5,0,0.7-0.1c0.7-0.2,1.3-0.6,1.6-1.3C117.1,108,116.6,106.4,115.3,105.6z"></path><path d="M121.1,78.4h-11.7c-1.5,0-2.7,1.2-2.7,2.7c0,1.5,1.2,2.7,2.7,2.7h11.7c1.5,0,2.7-1.2,2.7-2.7 C123.8,79.6,122.6,78.4,121.1,78.4z"></path><path d="M103.9,63.8c0.5,0,0.9-0.1,1.3-0.4l10.2-5.9c1.3-0.7,1.7-2.4,1-3.7c-0.7-1.3-2.4-1.7-3.7-1l-10.2,5.9 c-1.3,0.7-1.7,2.4-1,3.7C102,63.3,102.9,63.8,103.9,63.8z"></path><path d="M96,33.6c-0.6-0.4-1.3-0.5-2-0.3c-0.7,0.2-1.3,0.6-1.7,1.3l-5.9,10.2c-0.7,1.3-0.3,2.9,1,3.7c0.4,0.2,0.9,0.4,1.3,0.4 c0.2,0,0.5,0,0.7-0.1c0.7-0.2,1.3-0.6,1.7-1.3L97,37.3C97.8,36,97.3,34.3,96,33.6z"></path><path d="M117.1,34.1C104.8,21.5,88.5,14.2,71,13.5V5.7h5.1c1.5,0,2.7-1.2,2.7-2.7c0-1.5-1.2-2.7-2.7-2.7H60.5 c-1.5,0-2.7,1.2-2.7,2.7c0,1.5,1.2,2.7,2.7,2.7h5.1v7.9c-17.5,0.7-33.8,8-46.1,20.6C7,46.9,0.2,63.8,0.2,81.6 c0,37.6,30.6,68.1,68.1,68.1c37.6,0,68.1-30.6,68.1-68.1C136.4,63.8,129.6,46.9,117.1,34.1z M68.3,144.3 c-34.6,0-62.7-28.1-62.7-62.7c0-34.6,28.1-62.7,62.7-62.7S131,47,131,81.6C131,116.2,102.9,144.3,68.3,144.3z"></path><path d="M76.6,87c1.5-2.3,1.9-5,1.3-7.6c-0.6-2.6-2.2-4.7-4.4-6.1c-2.3-1.4-4.9-1.8-7.5-1.2c-0.6,0.1-1.3,0.4-1.9,0.7L48.5,54.8 c-0.5-0.5-1.1-0.9-1.9-0.9c-0.7,0-1.4,0.2-2,0.7c-0.5,0.5-0.9,1.1-0.9,1.9c0,0.7,0.2,1.4,0.7,2L60,76.3c-1.5,2.3-2,5-1.3,7.6 c0.6,2.5,2.2,4.7,4.4,6.1c2.2,1.4,4.9,1.8,7.4,1.2c0.6-0.2,1.3-0.4,1.9-0.7l4.1,4.6c0.5,0.5,1.1,0.9,1.9,0.9c0.1,0,0.1,0,0.2,0 c0.7,0,1.3-0.2,1.8-0.7c1.1-1,1.2-2.7,0.3-3.8L76.6,87z"></path></svg>