<svg xmlns="http://www.w3.org/2000/svg" viewBox="0 0 99.7 85.5"><path d="M71.2,64.1V46.6a3.5,3.5,0,0,1,3.9-3.9c3.1-.1,3.1-.1,3.2-3.1,0-4.6-.2-9-1.7-13.4A28.3,28.3,0,0,0,52.5,7.6,31.1,31.1,0,0,0,38.4,9.9a3.6,3.6,0,0,1-5-1.8c-.9-1.9-.1-3.9,2.1-4.9,10.2-4.4,20.4-4.3,30.3.7,11.6,5.8,18,15.4,19.5,28.3a73.8,73.8,0,0,1,.3,9.4A1.2,1.2,0,0,0,86.7,43c8.1,1.8,13,7.9,13,16.2V69.7A15.9,15.9,0,0,1,84.9,85.4c-3.4.2-6.8.1-10.2,0a3.4,3.4,0,0,1-3.5-3.6Zm7.3,14c1.9,0,3.7.1,5.4,0a8.6,8.6,0,0,0,8.5-8.6c.1-3.6.1-7.3,0-10.9a8,8,0,0,0-1.7-5c-2.4-3.3-8-4.8-12.2-3.3Z"></path><path d="M0,64.1a65.4,65.4,0,0,1,.7-8.9c1.4-6.5,5.7-10.5,12.2-12.1,1.2-.3,1.5-.8,1.5-2,0-4.4-.3-8.9.9-13.3.6-2.2,1.3-4.3,2.1-6.4a3.6,3.6,0,0,1,4.7-2A3.5,3.5,0,0,1,24.2,24c-2.6,5.6-2.5,11.4-2.5,17.4,0,1,.3,1.4,1.3,1.3a12,12,0,0,1,1.9,0,3.6,3.6,0,0,1,3.9,3.9V77c0,1.6.1,3.1,0,4.7a3.6,3.6,0,0,1-3.6,3.8H15.7A16,16,0,0,1,.2,69.3V64.1Zm21.5.1V51.4c0-1-.2-1.5-1.3-1.4s-2.8,0-4.1,0a8.8,8.8,0,0,0-8.6,8.7q-.1,5.4,0,10.8a8.7,8.7,0,0,0,8.6,8.6c1.4.1,2.8,0,4.1,0s1.3-.3,1.3-1.3Z"></path><path class="wdt-cus-icon-path-bg-01" d="M26.3,17.4a3.3,3.3,0,0,1-2.8-2,3.3,3.3,0,0,1,.4-3.7,14.5,14.5,0,0,1,1.7-1.8,3.5,3.5,0,0,1,4.2-.2,3.7,3.7,0,0,1,1.4,4.2A5.9,5.9,0,0,1,26.3,17.4Z"></path></svg>