<svg xmlns="http://www.w3.org/2000/svg" viewBox="0 0 100 75"><path d="M49.9,75H11A10.6,10.6,0,0,1,0,64.1V11A10.7,10.7,0,0,1,10.9,0h6.8a3.5,3.5,0,0,1,3.8,3.6,3.7,3.7,0,0,1-3.7,3.8H11A3.3,3.3,0,0,0,7.4,11c-.2,4.8-.2,4.8,3.8,7.2C21.1,24.3,31,30.5,40.9,36.4c5.9,3.6,12.1,3.7,18,.1C69.8,30,80.5,23.3,91.3,16.7a2.3,2.3,0,0,0,1.4-2.4,28,28,0,0,1,0-2.9c-.1-2.7-1.4-4-4.1-4H41.9a6.4,6.4,0,0,1-2.8-.7,3.4,3.4,0,0,1-1.6-4A3.6,3.6,0,0,1,40.8,0h48C95.3,0,100,4.6,100,11.1V64A10.7,10.7,0,0,1,88.9,75ZM7.3,24.6v1.8c0,12.3,0,24.6.1,36.9,0,3.3,1,4.4,4.3,4.4H88.2c3.3,0,4.5-1.2,4.5-4.5V26c0-.4-.1-.8-.1-1.4l-1.2.7-27.7,17c-8.9,5.4-17.9,5.6-26.9.4-7.2-4.2-14.2-8.8-21.3-13.2Z"></path><path class="wdt-cus-icon-path-bg-01" d="M29.5.1c3,0,4.6,1.5,4.4,4a3.3,3.3,0,0,1-2.5,3c-2,.4-4,.6-5.6-1.2A3.3,3.3,0,0,1,25.4,2C26.2.6,27.3.1,29.5.1Z"></path></svg>