<svg xmlns="http://www.w3.org/2000/svg" viewBox="0 0 78.8 100"><path d="M39.5,90.4l2.6-3.2c7.5-9.4,15-18.7,22.4-28.1a31.8,31.8,0,0,0-2-41.8C53.9,8.1,39,4.9,27.3,9.8l-1.9.8a3.6,3.6,0,0,1-4.9-1.8,3.6,3.6,0,0,1,1.9-4.9A37.2,37.2,0,0,1,42.3.1c12.7,1.2,22.8,7,30,17.6,8.8,13.1,8.6,31.4-.7,44.1C66.4,69,60.6,75.9,55,82.9c-4,5-8.1,9.9-12,15.1-2.1,2.8-5.1,2.6-7.1,0C27,86.7,17.8,75.6,9,64.2-1,51.3-2.7,37.2,4,22.3a3.8,3.8,0,0,1,3.1-2.6,3.4,3.4,0,0,1,3.4,1.4,3.5,3.5,0,0,1,.3,4A30.7,30.7,0,0,0,7.6,37.3a30.4,30.4,0,0,0,6.5,21.4c8,10.2,16.1,20.3,24.2,30.4Z"></path><path d="M60.9,39.4a21.5,21.5,0,1,1-43-.2c0-11.9,9.8-21.4,22.1-21.3A21.4,21.4,0,0,1,60.9,39.4Zm-35.5-.2a14,14,0,0,0,14,14.3,14.1,14.1,0,0,0,.2-28.2A13.9,13.9,0,0,0,25.4,39.2Z"></path><path class="wdt-cus-icon-path-bg-01" d="M10.2,14.7c0-2.2,2.6-4.9,4.8-4.9a3.6,3.6,0,0,1,3.6,3.6c0,2-2.7,4.7-4.7,4.8A3.6,3.6,0,0,1,10.2,14.7Z"></path></svg>