<svg xmlns="http://www.w3.org/2000/svg" viewBox="0 0 59.8 23.1"><path d="M59.8,12.9H47.9a3.2,3.2,0,0,0-2.5,1l-7.2,7.2c-.3.3-.6.9-1.1.5a3.1,3.1,0,0,1-1.5-1.7c-.1-.3.3-.5.5-.8l5.4-5.4a1.3,1.3,0,0,0,.7-.9H38.6c-.5,0-.7.4-1,.7-2.5,2.4-5.1,4.9-7.5,7.4-.7.7-1.2.7-1.7,0s-.3-.4-.5-.5-.5-.8,0-1.2l5.7-5.7c.1-.2.3-.3.4-.6-1.9.1-3.9-.8-5.6,1.2s-5.5,5.6-8.3,8.5c-.5.5-.9.7-1.5.1s-1.4-1.3-.6-2.1l8-8.2c.7-.7.7-1.1,0-1.8L18.1,2.7c-.6-.6-.6-1,0-1.5s1.2-1.6,2.8,0l7.9,8.1a2.7,2.7,0,0,0,1.9.8h3.1c0-.6-.3-.7-.5-1L28.1,4c-.5-.5-.7-.9-.1-1.5s1-1.6,2.6,0,4.5,4.4,6.7,6.7a2.3,2.3,0,0,0,2,.8h2.9a1.8,1.8,0,0,0-.7-1L36.1,3.7c-.5-.5-.5-.8,0-1.2s1.3-1.5,2.8,0S43.4,7,45.7,9.3a2.3,2.3,0,0,0,1.8.8H59.8"></path><path d="M21.7,11.5c0,.3-.3.5-.5.7L13.8,20c-.3.3-.6.6-1.1.2-2.6-2-5.5-3.4-8.2-5.2s-2.6-1.8-4-2.6-.6-.9,0-1.3L5.4,8.2c2.4-1.6,5-3,7.3-4.8.5-.4.9-.3,1.4.2L21.3,11l.4.5Z"></path></svg>